<svg width="15" height="22" viewBox="0 0 15 22" fill="none" xmlns="http://www.w3.org/2000/svg">
<path d="M13.0403 0.515369L13.0396 0.515365C12.8699 0.514482 12.7028 0.543841 12.5482 0.600776C12.3939 0.657594 12.2567 0.740109 12.1433 0.841302C12.1431 0.841491 12.1429 0.84168 12.1427 0.841868L1.64093 10.3083C1.64079 10.3084 1.64065 10.3085 1.64051 10.3087C1.41565 10.5128 1.30099 10.7767 1.30099 11.0391C1.30099 11.3015 1.41565 11.5655 1.64051 11.7696C1.64065 11.7697 1.64079 11.7698 1.64093 11.7699L12.1284 21.2234C12.3622 21.3984 12.6681 21.4949 12.9876 21.4838C13.3137 21.4724 13.614 21.3505 13.8309 21.155C14.0464 20.9607 14.1618 20.7114 14.1726 20.4607C14.1831 20.2157 14.0938 19.9671 13.9065 19.7635L4.66128 11.4298L4.23663 11.047L4.66128 10.6642L13.9227 2.31585L13.9243 2.31445C14.0945 2.16224 14.2038 1.97468 14.2478 1.77909C14.2918 1.58416 14.2713 1.38127 14.1859 1.19337C14.1002 1.00453 13.9501 0.834077 13.746 0.710035C13.5415 0.585778 13.2958 0.516334 13.0403 0.515369Z" fill="white" stroke="white" stroke-width="1.03069"/>
</svg>
