<svg width="14" height="22" viewBox="0 0 14 22" fill="none" xmlns="http://www.w3.org/2000/svg">
<path d="M1.74529 21.5L1.74601 21.5C1.91743 21.5009 2.08639 21.4712 2.24277 21.4136C2.39881 21.3562 2.53763 21.2727 2.65246 21.1702C2.65269 21.17 2.65293 21.1698 2.65317 21.1696L13.155 11.7031C13.1552 11.7029 13.1554 11.7028 13.1556 11.7026C13.3834 11.4958 13.5 11.2279 13.5 10.9609C13.5 10.6939 13.3834 10.426 13.1556 10.2192C13.1554 10.219 13.1552 10.2189 13.155 10.2187L2.66704 0.764721C2.4302 0.587241 2.1206 0.489624 1.79747 0.500874C1.46803 0.512345 1.16421 0.63553 0.94446 0.833613L0.609688 0.462226L0.944459 0.833613C0.726105 1.03044 0.608678 1.28363 0.597751 1.53863C0.587061 1.7881 0.678141 2.0409 0.868347 2.24741L10.1141 10.5816L10.5261 10.953L10.1141 11.3244L0.852658 19.6727L0.851134 19.6741C0.678628 19.8283 0.567659 20.0187 0.522825 20.2175C0.478138 20.4158 0.499057 20.6221 0.585754 20.813C0.672869 21.0048 0.825132 21.1775 1.0317 21.3031C1.23861 21.4288 1.48706 21.499 1.74529 21.5Z" fill="white" stroke="white"/>
</svg>
