<svg width="32" height="24" viewBox="0 0 32 24" fill="none" xmlns="http://www.w3.org/2000/svg">
<path d="M6.8495 24C4.92308 24 3.28205 23.3514 1.92642 22.0541C0.64214 20.6847 0 19.027 0 17.0811C0 15.9279 0.214047 14.8108 0.642141 13.7297C1.14158 12.6487 1.89075 11.3514 2.88963 9.83784L9.63211 0L13.913 2.81081L8.6689 10.9189C9.95318 11.1351 11.0948 11.8198 12.0936 12.973C13.0925 14.0541 13.592 15.4234 13.592 17.0811C13.592 19.027 12.9142 20.6847 11.5585 22.0541C10.2742 23.3514 8.70457 24 6.8495 24ZM24.9365 24C23.01 24 21.369 23.3514 20.0134 22.0541C18.7291 20.6847 18.087 19.027 18.087 17.0811C18.087 15.9279 18.301 14.8108 18.7291 13.7297C19.2285 12.6487 19.9777 11.3514 20.9766 9.83784L27.7191 0L32 2.81081L26.7558 10.9189C28.0401 11.1351 29.1817 11.8198 30.1806 12.973C31.1795 14.0541 31.6789 15.4234 31.6789 17.0811C31.6789 19.027 31.0011 20.6847 29.6455 22.0541C28.3612 23.3514 26.7915 24 24.9365 24Z" fill="url(#paint0_linear_1018_3036)"/>
<defs>
<linearGradient id="paint0_linear_1018_3036" x1="0" y1="0" x2="32.1951" y2="23.7353" gradientUnits="userSpaceOnUse">
<stop stop-color="#1761BB"/>
<stop offset="1" stop-color="#0E52A5"/>
</linearGradient>
</defs>
</svg>
