<svg width="31" height="31" viewBox="0 0 31 31" fill="none" xmlns="http://www.w3.org/2000/svg">
<g clip-path="url(#clip0_75_4409)">
<path d="M29.4785 18.8617L30.3159 16.9612C30.9189 15.5926 30.2927 13.9967 28.9173 13.3967C28.8041 13.3473 28.6892 13.3071 28.5736 13.2739C27.2845 12.9051 25.8884 13.5324 25.3351 14.7883L25.017 15.5104L24.0278 17.7554C23.787 18.3019 23.2439 18.655 22.6443 18.655H8.35474C7.75508 18.655 7.21198 18.3019 6.97118 17.7554L5.98106 15.5082L5.66392 14.7883C5.11052 13.5324 3.71431 12.9049 2.42539 13.2739C2.30974 13.307 2.19488 13.3473 2.08172 13.3967C0.706277 13.9967 0.0801016 15.5926 0.683148 16.9612L1.99036 19.9283C3.11041 22.4705 5.63128 24.0667 8.35474 24.0667C10.0832 24.0667 20.8923 24.0667 22.6443 24.0667C24.7925 24.0667 26.7758 23.0804 28.0693 21.4727" stroke="url(#paint0_linear_75_4409)" stroke-width="1.34054" stroke-miterlimit="10" stroke-linecap="round" stroke-linejoin="round"/>
<path d="M29.4785 18.8617L30.3159 16.9612C30.9189 15.5926 30.2927 13.9967 28.9173 13.3967C28.8041 13.3473 28.6892 13.3071 28.5736 13.2739C27.2845 12.9051 25.8884 13.5324 25.3351 14.7883L25.017 15.5104L24.0278 17.7554C23.787 18.3019 23.2439 18.655 22.6443 18.655H8.35474C7.75508 18.655 7.21198 18.3019 6.97118 17.7554L5.98106 15.5082L5.66392 14.7883C5.11052 13.5324 3.71431 12.9049 2.42539 13.2739C2.30974 13.307 2.19488 13.3473 2.08172 13.3967C0.706277 13.9967 0.0801016 15.5926 0.683148 16.9612L1.99036 19.9283C3.11041 22.4705 5.63128 24.0667 8.35474 24.0667C10.0832 24.0667 20.8923 24.0667 22.6443 24.0667C24.7925 24.0667 26.7758 23.0804 28.0693 21.4727" stroke="#55A1FF" stroke-opacity="0.5" stroke-width="1.34054" stroke-miterlimit="10" stroke-linecap="round" stroke-linejoin="round"/>
<path d="M5.98071 15.5081C8.96192 13.828 12.6848 14.088 15.436 16.2889C18.1884 14.0871 22.0116 13.8279 25.0167 15.5103" stroke="url(#paint1_linear_75_4409)" stroke-width="1.34054" stroke-miterlimit="10" stroke-linecap="round" stroke-linejoin="round"/>
<path d="M5.98071 15.5081C8.96192 13.828 12.6848 14.088 15.436 16.2889C18.1884 14.0871 22.0116 13.8279 25.0167 15.5103" stroke="#55A1FF" stroke-opacity="0.5" stroke-width="1.34054" stroke-miterlimit="10" stroke-linecap="round" stroke-linejoin="round"/>
<path d="M15.4338 16.29V16.2891V16.29Z" stroke="url(#paint2_linear_75_4409)" stroke-width="1.34054" stroke-miterlimit="10" stroke-linecap="round" stroke-linejoin="round"/>
<path d="M15.4338 16.29V16.2891V16.29Z" stroke="#55A1FF" stroke-opacity="0.5" stroke-width="1.34054" stroke-miterlimit="10" stroke-linecap="round" stroke-linejoin="round"/>
<path d="M15.436 16.2891C15.0529 17.0313 15.0529 17.9129 15.436 18.6552" stroke="url(#paint3_linear_75_4409)" stroke-width="1.34054" stroke-miterlimit="10" stroke-linecap="round" stroke-linejoin="round"/>
<path d="M15.436 16.2891C15.0529 17.0313 15.0529 17.9129 15.436 18.6552" stroke="#55A1FF" stroke-opacity="0.5" stroke-width="1.34054" stroke-miterlimit="10" stroke-linecap="round" stroke-linejoin="round"/>
<path d="M15.4338 8.08594V14.0479" stroke="url(#paint4_linear_75_4409)" stroke-width="1.34054" stroke-miterlimit="10" stroke-linecap="round" stroke-linejoin="round"/>
<path d="M15.4338 8.08594V14.0479" stroke="#55A1FF" stroke-opacity="0.5" stroke-width="1.34054" stroke-miterlimit="10" stroke-linecap="round" stroke-linejoin="round"/>
<path d="M4.0683 8.21973C3.82775 8.39719 3.60827 8.58331 3.41294 8.77863C2.63952 9.55206 2.40496 11.3105 2.42748 13.2739" stroke="url(#paint5_linear_75_4409)" stroke-width="1.34054" stroke-miterlimit="10" stroke-linecap="round" stroke-linejoin="round"/>
<path d="M4.0683 8.21973C3.82775 8.39719 3.60827 8.58331 3.41294 8.77863C2.63952 9.55206 2.40496 11.3105 2.42748 13.2739" stroke="#55A1FF" stroke-opacity="0.5" stroke-width="1.34054" stroke-miterlimit="10" stroke-linecap="round" stroke-linejoin="round"/>
<path d="M28.5751 13.2732C28.5977 11.3097 28.3631 9.55122 27.5897 8.77779C26.462 7.6501 24.5437 6.81995 22.2521 6.28732C19.8423 5.72726 17.248 6.39951 15.4377 8.08598C13.6276 6.39951 11.1597 5.7272 8.74992 6.28732C8.20905 6.41301 7.68932 6.55548 7.19556 6.71435" stroke="url(#paint6_linear_75_4409)" stroke-width="1.34054" stroke-miterlimit="10" stroke-linecap="round" stroke-linejoin="round"/>
<path d="M28.5751 13.2732C28.5977 11.3097 28.3631 9.55122 27.5897 8.77779C26.462 7.6501 24.5437 6.81995 22.2521 6.28732C19.8423 5.72726 17.248 6.39951 15.4377 8.08598C13.6276 6.39951 11.1597 5.7272 8.74992 6.28732C8.20905 6.41301 7.68932 6.55548 7.19556 6.71435" stroke="#55A1FF" stroke-opacity="0.5" stroke-width="1.34054" stroke-miterlimit="10" stroke-linecap="round" stroke-linejoin="round"/>
<path d="M23.5234 24.2403L25.0803 26.164C25.307 26.4438 25.6933 26.5655 26.0522 26.4384C26.4112 26.3113 26.6345 25.9736 26.6345 25.6134V23.0176" stroke="url(#paint7_linear_75_4409)" stroke-width="1.34054" stroke-miterlimit="10" stroke-linecap="round" stroke-linejoin="round"/>
<path d="M23.5234 24.2403L25.0803 26.164C25.307 26.4438 25.6933 26.5655 26.0522 26.4384C26.4112 26.3113 26.6345 25.9736 26.6345 25.6134V23.0176" stroke="#55A1FF" stroke-opacity="0.5" stroke-width="1.34054" stroke-miterlimit="10" stroke-linecap="round" stroke-linejoin="round"/>
<path d="M4.36743 23.0176V25.6134C4.36743 25.9736 4.59079 26.3113 4.94971 26.4384C5.30863 26.5655 5.69492 26.4438 5.92167 26.164L7.47851 24.2403" stroke="url(#paint8_linear_75_4409)" stroke-width="1.34054" stroke-miterlimit="10" stroke-linecap="round" stroke-linejoin="round"/>
<path d="M4.36743 23.0176V25.6134C4.36743 25.9736 4.59079 26.3113 4.94971 26.4384C5.30863 26.5655 5.69492 26.4438 5.92167 26.164L7.47851 24.2403" stroke="#55A1FF" stroke-opacity="0.5" stroke-width="1.34054" stroke-miterlimit="10" stroke-linecap="round" stroke-linejoin="round"/>
<path d="M4.84015 9.35541C5.11007 9.35541 5.32973 9.05443 5.43811 8.63908C5.58021 8.09446 6.00023 7.67366 6.54485 7.53168C6.96086 7.42324 7.26202 7.20309 7.26202 6.93353C7.26202 6.85597 7.23653 6.78277 7.19137 6.71508C7.07923 6.54682 6.84225 6.41313 6.54672 6.33594C6.0021 6.19365 5.58045 5.77448 5.43859 5.22974C5.33009 4.81306 5.10952 4.51172 4.84009 4.51172C4.57017 4.51172 4.35051 4.8127 4.24213 5.22805C4.10002 5.77267 3.68001 6.19347 3.13539 6.33545C2.71937 6.44389 2.41821 6.66404 2.41821 6.93359C2.41821 7.20339 2.71925 7.4233 3.13491 7.53168C3.52913 7.63448 3.8579 7.88357 4.06345 8.21967C4.14168 8.34754 4.20259 8.48759 4.24164 8.63756C4.3502 9.05413 4.57071 9.35541 4.84015 9.35541Z" stroke="white" stroke-width="0.908203" stroke-miterlimit="10" stroke-linecap="round" stroke-linejoin="round"/>
<path d="M29.9173 19.0669C29.4574 18.9468 29.0751 18.5886 28.9477 18.099C28.8527 17.7344 28.6598 17.4707 28.424 17.4707C28.1879 17.4707 27.9956 17.7341 27.9008 18.0975C27.7765 18.574 27.409 18.9422 26.9324 19.0664C26.5684 19.1613 26.3049 19.354 26.3049 19.5898C26.3049 19.8259 26.5683 20.0183 26.9321 20.1132C27.4082 20.2374 27.7764 20.6047 27.9005 21.0809C27.9402 21.2333 27.9972 21.3676 28.0671 21.4729C28.3271 21.8642 28.7631 21.7881 28.9473 21.0823C29.0716 20.6057 29.4391 20.2375 29.9157 20.1133C30.2797 20.0184 30.5432 19.8258 30.5432 19.5898C30.5431 19.3534 30.28 19.1617 29.9173 19.0669Z" stroke="white" stroke-width="0.908203" stroke-miterlimit="10" stroke-linecap="round" stroke-linejoin="round"/>
</g>
<defs>
<linearGradient id="paint0_linear_75_4409" x1="15.4995" y1="13.1689" x2="11.7045" y2="22.6002" gradientUnits="userSpaceOnUse">
<stop stop-color="#2F83EA"/>
<stop offset="1" stop-color="#14529E"/>
</linearGradient>
<linearGradient id="paint1_linear_75_4409" x1="15.4987" y1="14.417" x2="15.2955" y2="16.2771" gradientUnits="userSpaceOnUse">
<stop stop-color="#2F83EA"/>
<stop offset="1" stop-color="#14529E"/>
</linearGradient>
<linearGradient id="paint2_linear_75_4409" x1="15.9338" y1="16.2891" x2="15.9338" y2="16.29" gradientUnits="userSpaceOnUse">
<stop stop-color="#2F83EA"/>
<stop offset="1" stop-color="#14529E"/>
</linearGradient>
<linearGradient id="paint3_linear_75_4409" x1="15.2923" y1="16.2891" x2="15.0354" y2="16.3171" gradientUnits="userSpaceOnUse">
<stop stop-color="#2F83EA"/>
<stop offset="1" stop-color="#14529E"/>
</linearGradient>
<linearGradient id="paint4_linear_75_4409" x1="15.9338" y1="8.08594" x2="15.049" y2="8.21951" gradientUnits="userSpaceOnUse">
<stop stop-color="#2F83EA"/>
<stop offset="1" stop-color="#14529E"/>
</linearGradient>
<linearGradient id="paint5_linear_75_4409" x1="3.24716" y1="8.21973" x2="1.878" y2="8.62013" gradientUnits="userSpaceOnUse">
<stop stop-color="#2F83EA"/>
<stop offset="1" stop-color="#14529E"/>
</linearGradient>
<linearGradient id="paint6_linear_75_4409" x1="17.8861" y1="6.09375" x2="15.5217" y2="12.4309" gradientUnits="userSpaceOnUse">
<stop stop-color="#2F83EA"/>
<stop offset="1" stop-color="#14529E"/>
</linearGradient>
<linearGradient id="paint7_linear_75_4409" x1="25.079" y1="23.0176" x2="23.3733" y2="24.3935" gradientUnits="userSpaceOnUse">
<stop stop-color="#2F83EA"/>
<stop offset="1" stop-color="#14529E"/>
</linearGradient>
<linearGradient id="paint8_linear_75_4409" x1="5.92297" y1="23.0176" x2="4.21729" y2="24.3935" gradientUnits="userSpaceOnUse">
<stop stop-color="#2F83EA"/>
<stop offset="1" stop-color="#14529E"/>
</linearGradient>
<clipPath id="clip0_75_4409">
<rect width="31" height="31" fill="white"/>
</clipPath>
</defs>
</svg>
