<svg width="25" height="25" viewBox="0 0 25 25" fill="none" xmlns="http://www.w3.org/2000/svg">
<path d="M15.3412 4.81821C16.3066 4.04189 16.5252 3.212 16.5384 2.65248C16.5709 1.2913 15.4912 0.295206 15.3679 0.186173C15.0626 -0.0841396 14.5949 -0.0568935 14.3233 0.247062C14.0518 0.551017 14.0792 1.0165 14.3845 1.28686C14.3914 1.29301 15.0755 1.93012 15.0591 2.61757C15.0504 2.98383 14.8385 3.32885 14.4113 3.67236C13.4459 4.44867 13.2273 5.27856 13.214 5.83808C13.1815 7.19926 14.2613 8.19536 14.3845 8.30444C14.5258 8.42953 14.7022 8.49116 14.8779 8.49116C15.0817 8.49116 15.2847 8.40815 15.4305 8.24482C15.7021 7.94086 15.6762 7.47665 15.3708 7.20634C15.1766 7.03056 14.6764 6.44741 14.6934 5.86747C14.7042 5.50326 14.916 5.16 15.3412 4.81821Z" fill="url(#paint0_linear_75_4402)"/>
<path d="M15.3412 4.81821C16.3066 4.04189 16.5252 3.212 16.5384 2.65248C16.5709 1.2913 15.4912 0.295206 15.3679 0.186173C15.0626 -0.0841396 14.5949 -0.0568935 14.3233 0.247062C14.0518 0.551017 14.0792 1.0165 14.3845 1.28686C14.3914 1.29301 15.0755 1.93012 15.0591 2.61757C15.0504 2.98383 14.8385 3.32885 14.4113 3.67236C13.4459 4.44867 13.2273 5.27856 13.214 5.83808C13.1815 7.19926 14.2613 8.19536 14.3845 8.30444C14.5258 8.42953 14.7022 8.49116 14.8779 8.49116C15.0817 8.49116 15.2847 8.40815 15.4305 8.24482C15.7021 7.94086 15.6762 7.47665 15.3708 7.20634C15.1766 7.03056 14.6764 6.44741 14.6934 5.86747C14.7042 5.50326 14.916 5.16 15.3412 4.81821Z" fill="#55A1FF" fill-opacity="0.5"/>
<path d="M10.6467 4.81821C11.6122 4.04189 11.8307 3.212 11.844 2.65248C11.8765 1.2913 10.7967 0.295206 10.6735 0.186173C10.3682 -0.0841396 9.90051 -0.0568935 9.62892 0.247062C9.35737 0.551017 9.38474 1.0165 9.69009 1.28686C9.697 1.29301 10.3811 1.93012 10.3647 2.61757C10.356 2.98383 10.1441 3.32885 9.71687 3.67236C8.75144 4.44867 8.53287 5.27856 8.51958 5.83808C8.48711 7.19926 9.56687 8.19536 9.69009 8.30444C9.8314 8.42953 10.0078 8.49116 10.1834 8.49116C10.3873 8.49116 10.5902 8.40815 10.7361 8.24482C11.0076 7.94086 10.9817 7.47665 10.6764 7.20634C10.4822 7.03056 9.98199 6.44741 9.99901 5.86747C10.0098 5.50326 10.2216 5.16 10.6467 4.81821Z" fill="url(#paint1_linear_75_4402)"/>
<path d="M10.6467 4.81821C11.6122 4.04189 11.8307 3.212 11.844 2.65248C11.8765 1.2913 10.7967 0.295206 10.6735 0.186173C10.3682 -0.0841396 9.90051 -0.0568935 9.62892 0.247062C9.35737 0.551017 9.38474 1.0165 9.69009 1.28686C9.697 1.29301 10.3811 1.93012 10.3647 2.61757C10.356 2.98383 10.1441 3.32885 9.71687 3.67236C8.75144 4.44867 8.53287 5.27856 8.51958 5.83808C8.48711 7.19926 9.56687 8.19536 9.69009 8.30444C9.8314 8.42953 10.0078 8.49116 10.1834 8.49116C10.3873 8.49116 10.5902 8.40815 10.7361 8.24482C11.0076 7.94086 10.9817 7.47665 10.6764 7.20634C10.4822 7.03056 9.98199 6.44741 9.99901 5.86747C10.0098 5.50326 10.2216 5.16 10.6467 4.81821Z" fill="#55A1FF" fill-opacity="0.5"/>
<path d="M21.2388 12.0189H20.3632V11.4788C20.3632 11.0721 20.0319 10.7423 19.6233 10.7423H0.739886C0.331291 10.7423 0 11.072 0 11.4788V15.3659C0 18.8006 1.9098 21.8208 4.77703 23.527H0.740328C0.331732 23.527 0.000441463 23.8567 0.000441463 24.2635C0.000441463 24.6703 0.331634 25 0.740328 25H19.6233C20.0319 25 20.3632 24.6703 20.3632 24.2635C20.3632 23.8567 20.032 23.527 19.6233 23.527H15.5862C17.2166 22.5567 18.5374 21.1618 19.3735 19.507H21.2389C23.3127 19.507 25 17.8274 25 15.7629C25 13.6985 23.3127 12.0189 21.2388 12.0189ZM18.8834 15.3659C18.8834 19.8659 14.9798 23.527 10.1816 23.527C5.3834 23.527 1.47977 19.8659 1.47977 15.3659V12.2153H18.8834V15.3659H18.8834ZM21.2388 18.034H19.9656C20.2242 17.1864 20.3632 16.2912 20.3632 15.3659V13.4919H21.2388C22.4968 13.4919 23.5202 14.5107 23.5202 15.7629C23.5202 17.0152 22.4968 18.034 21.2388 18.034Z" fill="url(#paint2_linear_75_4402)"/>
<path d="M21.2388 12.0189H20.3632V11.4788C20.3632 11.0721 20.0319 10.7423 19.6233 10.7423H0.739886C0.331291 10.7423 0 11.072 0 11.4788V15.3659C0 18.8006 1.9098 21.8208 4.77703 23.527H0.740328C0.331732 23.527 0.000441463 23.8567 0.000441463 24.2635C0.000441463 24.6703 0.331634 25 0.740328 25H19.6233C20.0319 25 20.3632 24.6703 20.3632 24.2635C20.3632 23.8567 20.032 23.527 19.6233 23.527H15.5862C17.2166 22.5567 18.5374 21.1618 19.3735 19.507H21.2389C23.3127 19.507 25 17.8274 25 15.7629C25 13.6985 23.3127 12.0189 21.2388 12.0189ZM18.8834 15.3659C18.8834 19.8659 14.9798 23.527 10.1816 23.527C5.3834 23.527 1.47977 19.8659 1.47977 15.3659V12.2153H18.8834V15.3659H18.8834ZM21.2388 18.034H19.9656C20.2242 17.1864 20.3632 16.2912 20.3632 15.3659V13.4919H21.2388C22.4968 13.4919 23.5202 14.5107 23.5202 15.7629C23.5202 17.0152 22.4968 18.034 21.2388 18.034Z" fill="#55A1FF" fill-opacity="0.5"/>
<path d="M5.9523 4.81825C6.91772 4.04194 7.13629 3.21205 7.14958 2.65253C7.18206 1.29135 6.10229 0.295255 5.97903 0.186222C5.67374 -0.0840908 5.20608 -0.0568447 4.93449 0.247111C4.66294 0.551017 4.69031 1.01654 4.99565 1.28691C5.00257 1.29306 5.68664 1.93017 5.67025 2.61762C5.66152 2.98388 5.44962 3.3289 5.02244 3.6724C4.05701 4.44872 3.83844 5.27861 3.82515 5.83813C3.79273 7.19926 4.87249 8.19536 4.9957 8.30444C5.13668 8.42924 5.31223 8.49062 5.48715 8.49062C5.69105 8.49062 5.89407 8.40717 6.04029 8.24355C6.31184 7.93959 6.28447 7.47412 5.97913 7.20375C5.97221 7.1976 5.28815 6.56049 5.30453 5.87304C5.31316 5.50678 5.52506 5.16171 5.9523 4.81825Z" fill="url(#paint3_linear_75_4402)"/>
<path d="M5.9523 4.81825C6.91772 4.04194 7.13629 3.21205 7.14958 2.65253C7.18206 1.29135 6.10229 0.295255 5.97903 0.186222C5.67374 -0.0840908 5.20608 -0.0568447 4.93449 0.247111C4.66294 0.551017 4.69031 1.01654 4.99565 1.28691C5.00257 1.29306 5.68664 1.93017 5.67025 2.61762C5.66152 2.98388 5.44962 3.3289 5.02244 3.6724C4.05701 4.44872 3.83844 5.27861 3.82515 5.83813C3.79273 7.19926 4.87249 8.19536 4.9957 8.30444C5.13668 8.42924 5.31223 8.49062 5.48715 8.49062C5.69105 8.49062 5.89407 8.40717 6.04029 8.24355C6.31184 7.93959 6.28447 7.47412 5.97913 7.20375C5.97221 7.1976 5.28815 6.56049 5.30453 5.87304C5.31316 5.50678 5.52506 5.16171 5.9523 4.81825Z" fill="#55A1FF" fill-opacity="0.5"/>
<path d="M15.3409 4.81821C16.3064 4.04189 16.5249 3.212 16.5382 2.65248C16.5707 1.2913 15.4909 0.295206 15.3677 0.186173C15.0624 -0.0841396 14.5947 -0.0568935 14.3231 0.247062C14.0516 0.551017 14.079 1.0165 14.3843 1.28686C14.3912 1.29301 15.0753 1.93012 15.0589 2.61757C15.0502 2.98383 14.8383 3.32885 14.4111 3.67236C13.4457 4.44867 13.2271 5.27856 13.2138 5.83808C13.1813 7.19926 14.2611 8.19536 14.3843 8.30444C14.5256 8.42953 14.702 8.49116 14.8777 8.49116C15.0815 8.49116 15.2844 8.40815 15.4303 8.24482C15.7019 7.94086 15.676 7.47665 15.3706 7.20634C15.1764 7.03056 14.6762 6.44741 14.6932 5.86747C14.704 5.50326 14.9158 5.16 15.3409 4.81821Z" fill="white"/>
<path d="M10.6465 4.81821C11.6119 4.04189 11.8305 3.212 11.8438 2.65248C11.8763 1.2913 10.7965 0.295206 10.6732 0.186173C10.368 -0.0841396 9.9003 -0.0568935 9.6287 0.247062C9.35716 0.551017 9.38453 1.0165 9.68987 1.28686C9.69679 1.29301 10.3809 1.93012 10.3645 2.61757C10.3557 2.98383 10.1438 3.32885 9.71665 3.67236C8.75123 4.44867 8.53266 5.27856 8.51936 5.83808C8.48689 7.19926 9.56665 8.19536 9.68987 8.30444C9.83119 8.42953 10.0076 8.49116 10.1832 8.49116C10.3871 8.49116 10.59 8.40815 10.7359 8.24482C11.0074 7.94086 10.9815 7.47665 10.6762 7.20634C10.482 7.03056 9.98177 6.44741 9.99879 5.86747C10.0095 5.50326 10.2214 5.16 10.6465 4.81821Z" fill="white"/>
<path d="M5.95208 4.81825C6.91751 4.04194 7.13608 3.21205 7.14937 2.65253C7.18184 1.29135 6.10208 0.295255 5.97882 0.186222C5.67352 -0.0840908 5.20587 -0.0568447 4.93427 0.247111C4.66273 0.551017 4.6901 1.01654 4.99544 1.28691C5.00236 1.29306 5.68642 1.93017 5.67004 2.61762C5.66131 2.98388 5.44941 3.3289 5.02222 3.6724C4.0568 4.44872 3.83823 5.27861 3.82493 5.83813C3.79251 7.19926 4.87227 8.19536 4.99549 8.30444C5.13646 8.42924 5.31201 8.49062 5.48693 8.49062C5.69084 8.49062 5.89386 8.40717 6.04008 8.24355C6.31163 7.93959 6.28426 7.47412 5.97891 7.20375C5.972 7.1976 5.28793 6.56049 5.30431 5.87304C5.31295 5.50678 5.52485 5.16171 5.95208 4.81825Z" fill="white"/>
<defs>
<linearGradient id="paint0_linear_75_4402" x1="12.5" y1="0" x2="-1.49012e-07" y2="11.25" gradientUnits="userSpaceOnUse">
<stop stop-color="#2F83EA"/>
<stop offset="1" stop-color="#14529E"/>
</linearGradient>
<linearGradient id="paint1_linear_75_4402" x1="12.5" y1="0" x2="-1.49012e-07" y2="11.25" gradientUnits="userSpaceOnUse">
<stop stop-color="#2F83EA"/>
<stop offset="1" stop-color="#14529E"/>
</linearGradient>
<linearGradient id="paint2_linear_75_4402" x1="12.5" y1="0" x2="-1.49012e-07" y2="11.25" gradientUnits="userSpaceOnUse">
<stop stop-color="#2F83EA"/>
<stop offset="1" stop-color="#14529E"/>
</linearGradient>
<linearGradient id="paint3_linear_75_4402" x1="12.5" y1="0" x2="-1.49012e-07" y2="11.25" gradientUnits="userSpaceOnUse">
<stop stop-color="#2F83EA"/>
<stop offset="1" stop-color="#14529E"/>
</linearGradient>
</defs>
</svg>
