<svg width="25" height="25" viewBox="0 0 25 25" fill="none" xmlns="http://www.w3.org/2000/svg">
<g clip-path="url(#clip0_75_4395)">
<path d="M24.9924 13.1725C24.7028 10.0876 23.2746 7.23247 20.9709 5.13191C18.6529 3.01914 15.6447 1.85547 12.5 1.85547C9.35536 1.85547 6.34709 3.01914 4.02909 5.13191C1.7254 7.23247 0.297174 10.0876 0.00763829 13.1725C-0.0383288 13.6593 0.12475 14.1466 0.454339 14.509C0.786027 14.8727 1.25867 15.0818 1.75172 15.0818H5.67037C6.53115 15.0818 7.27578 14.4405 7.40224 13.5904C7.58153 12.3878 8.19093 11.2833 9.11809 10.4807C10.0552 9.66911 11.2564 9.22222 12.5 9.22222C13.1216 9.22222 13.7301 9.33266 14.3019 9.54514L12.2768 10.7922C11.5137 10.8425 10.7657 11.1565 10.1835 11.7355C9.56536 12.3508 9.22509 13.1691 9.22509 14.0398C9.22509 14.9109 9.56536 15.7291 10.1835 16.3445C10.8208 16.9788 11.6572 17.2956 12.4941 17.2956C13.3307 17.2956 14.1676 16.9788 14.8043 16.3445C15.3696 15.782 15.7017 15.049 15.7545 14.2624L17.1164 12.0695C17.355 12.5471 17.5186 13.0602 17.5978 13.5904C17.7242 14.4405 18.4689 15.0818 19.3297 15.0818H23.2483C23.7413 15.0818 24.214 14.8727 24.5457 14.509C24.8753 14.1466 25.0383 13.6593 24.9924 13.1725ZM5.95361 13.3747C5.93244 13.5149 5.81342 13.6169 5.67037 13.6169H1.75172C1.63995 13.6169 1.56976 13.5578 1.5379 13.5227C1.50662 13.4884 1.45589 13.4151 1.46619 13.3093C1.6903 10.9196 2.69071 8.68473 4.3089 6.92005L7.46919 10.0666C6.66543 11.0025 6.13614 12.1485 5.95361 13.3747ZM11.7676 7.798C10.5991 7.92732 9.48487 8.36487 8.5415 9.06658L5.36805 5.90782C7.1766 4.39205 9.41201 3.49865 11.7676 3.34434V7.798ZM12.4941 15.8318C11.5044 15.8318 10.7021 15.0295 10.7021 14.0398C10.7021 13.0499 11.5044 12.2477 12.4941 12.2477C13.4838 12.2477 14.2862 13.0499 14.2862 14.0398C14.2862 15.0295 13.4838 15.8318 12.4941 15.8318ZM16.8736 9.68323C16.8736 9.68361 16.8726 9.68513 16.8701 9.68857C16.8701 9.68895 16.8697 9.68895 16.8697 9.68952C16.8692 9.69009 16.8692 9.69009 16.8692 9.69047C16.8682 9.69143 16.8678 9.69295 16.8667 9.69448L16.8663 9.69486C16.8663 9.69543 16.8657 9.69582 16.8657 9.69639C16.8654 9.69677 16.8648 9.69677 16.8648 9.69734C16.8648 9.69734 16.8648 9.69791 16.8644 9.69791C16.8638 9.69925 16.8629 9.70077 16.8619 9.70173C16.8078 9.78966 16.5192 10.2539 15.2535 12.2927C15 11.8971 14.666 11.5578 14.2534 11.2949L16.8757 9.68018C16.8745 9.68132 16.8741 9.68227 16.8736 9.68323ZM15.7896 8.62904C15.0021 8.1789 14.1342 7.89661 13.2324 7.79743V3.34434C15.5865 3.49865 17.82 4.3911 19.6285 5.90439L18.6798 6.84872L15.7896 8.62904ZM23.4621 13.5227C23.4303 13.5578 23.3601 13.6169 23.2483 13.6169H19.3297C19.1866 13.6169 19.0676 13.5149 19.0464 13.3747C18.902 12.4044 18.5381 11.4777 17.9878 10.6657L19.7134 7.88689L20.6881 6.91662C22.3084 8.68168 23.3093 10.9177 23.5338 13.3093C23.5441 13.4151 23.4934 13.4884 23.4621 13.5227Z" fill="url(#paint0_linear_75_4395)"/>
<path d="M24.9924 13.1725C24.7028 10.0876 23.2746 7.23247 20.9709 5.13191C18.6529 3.01914 15.6447 1.85547 12.5 1.85547C9.35536 1.85547 6.34709 3.01914 4.02909 5.13191C1.7254 7.23247 0.297174 10.0876 0.00763829 13.1725C-0.0383288 13.6593 0.12475 14.1466 0.454339 14.509C0.786027 14.8727 1.25867 15.0818 1.75172 15.0818H5.67037C6.53115 15.0818 7.27578 14.4405 7.40224 13.5904C7.58153 12.3878 8.19093 11.2833 9.11809 10.4807C10.0552 9.66911 11.2564 9.22222 12.5 9.22222C13.1216 9.22222 13.7301 9.33266 14.3019 9.54514L12.2768 10.7922C11.5137 10.8425 10.7657 11.1565 10.1835 11.7355C9.56536 12.3508 9.22509 13.1691 9.22509 14.0398C9.22509 14.9109 9.56536 15.7291 10.1835 16.3445C10.8208 16.9788 11.6572 17.2956 12.4941 17.2956C13.3307 17.2956 14.1676 16.9788 14.8043 16.3445C15.3696 15.782 15.7017 15.049 15.7545 14.2624L17.1164 12.0695C17.355 12.5471 17.5186 13.0602 17.5978 13.5904C17.7242 14.4405 18.4689 15.0818 19.3297 15.0818H23.2483C23.7413 15.0818 24.214 14.8727 24.5457 14.509C24.8753 14.1466 25.0383 13.6593 24.9924 13.1725ZM5.95361 13.3747C5.93244 13.5149 5.81342 13.6169 5.67037 13.6169H1.75172C1.63995 13.6169 1.56976 13.5578 1.5379 13.5227C1.50662 13.4884 1.45589 13.4151 1.46619 13.3093C1.6903 10.9196 2.69071 8.68473 4.3089 6.92005L7.46919 10.0666C6.66543 11.0025 6.13614 12.1485 5.95361 13.3747ZM11.7676 7.798C10.5991 7.92732 9.48487 8.36487 8.5415 9.06658L5.36805 5.90782C7.1766 4.39205 9.41201 3.49865 11.7676 3.34434V7.798ZM12.4941 15.8318C11.5044 15.8318 10.7021 15.0295 10.7021 14.0398C10.7021 13.0499 11.5044 12.2477 12.4941 12.2477C13.4838 12.2477 14.2862 13.0499 14.2862 14.0398C14.2862 15.0295 13.4838 15.8318 12.4941 15.8318ZM16.8736 9.68323C16.8736 9.68361 16.8726 9.68513 16.8701 9.68857C16.8701 9.68895 16.8697 9.68895 16.8697 9.68952C16.8692 9.69009 16.8692 9.69009 16.8692 9.69047C16.8682 9.69143 16.8678 9.69295 16.8667 9.69448L16.8663 9.69486C16.8663 9.69543 16.8657 9.69582 16.8657 9.69639C16.8654 9.69677 16.8648 9.69677 16.8648 9.69734C16.8648 9.69734 16.8648 9.69791 16.8644 9.69791C16.8638 9.69925 16.8629 9.70077 16.8619 9.70173C16.8078 9.78966 16.5192 10.2539 15.2535 12.2927C15 11.8971 14.666 11.5578 14.2534 11.2949L16.8757 9.68018C16.8745 9.68132 16.8741 9.68227 16.8736 9.68323ZM15.7896 8.62904C15.0021 8.1789 14.1342 7.89661 13.2324 7.79743V3.34434C15.5865 3.49865 17.82 4.3911 19.6285 5.90439L18.6798 6.84872L15.7896 8.62904ZM23.4621 13.5227C23.4303 13.5578 23.3601 13.6169 23.2483 13.6169H19.3297C19.1866 13.6169 19.0676 13.5149 19.0464 13.3747C18.902 12.4044 18.5381 11.4777 17.9878 10.6657L19.7134 7.88689L20.6881 6.91662C22.3084 8.68168 23.3093 10.9177 23.5338 13.3093C23.5441 13.4151 23.4934 13.4884 23.4621 13.5227Z" fill="#55A1FF" fill-opacity="0.5"/>
<path d="M20.1243 18.7324H4.87695C4.4724 18.7324 4.14453 19.0603 4.14453 19.4648C4.14453 19.8694 4.4724 20.1973 4.87695 20.1973H20.1245C20.5288 20.1973 20.8569 19.8694 20.8569 19.4648C20.8569 19.0603 20.5288 18.7324 20.1243 18.7324Z" fill="white"/>
<path d="M16.3075 21.6309H8.67773C8.27319 21.6309 7.94531 21.9587 7.94531 22.3633C7.94531 22.7676 8.27319 23.0957 8.67773 23.0957H16.3075C16.7119 23.0957 17.0399 22.7676 17.0399 22.3633C17.0399 21.9587 16.7121 21.6309 16.3075 21.6309Z" fill="white"/>
<path d="M16.3075 21.6309H8.67773C8.27319 21.6309 7.94531 21.9587 7.94531 22.3633C7.94531 22.7676 8.27319 23.0957 8.67773 23.0957H16.3075C16.7119 23.0957 17.0399 22.7676 17.0399 22.3633C17.0399 21.9587 16.7121 21.6309 16.3075 21.6309Z" fill="url(#paint1_linear_75_4395)"/>
<path d="M16.3075 21.6309H8.67773C8.27319 21.6309 7.94531 21.9587 7.94531 22.3633C7.94531 22.7676 8.27319 23.0957 8.67773 23.0957H16.3075C16.7119 23.0957 17.0399 22.7676 17.0399 22.3633C17.0399 21.9587 16.7121 21.6309 16.3075 21.6309Z" fill="#55A1FF" fill-opacity="0.5"/>
</g>
<defs>
<linearGradient id="paint0_linear_75_4395" x1="12.5" y1="1.85547" x2="5.25663" y2="12.4108" gradientUnits="userSpaceOnUse">
<stop stop-color="#2F83EA"/>
<stop offset="1" stop-color="#14529E"/>
</linearGradient>
<linearGradient id="paint1_linear_75_4395" x1="12.4926" y1="21.6309" x2="12.2372" y2="23.0581" gradientUnits="userSpaceOnUse">
<stop stop-color="#2F83EA"/>
<stop offset="1" stop-color="#14529E"/>
</linearGradient>
<clipPath id="clip0_75_4395">
<rect width="25" height="25" fill="white"/>
</clipPath>
</defs>
</svg>
