<svg width="25" height="23" viewBox="0 0 25 23" fill="none" xmlns="http://www.w3.org/2000/svg">
<path d="M24.9584 12.988L23.0607 2.22553C22.8028 0.763267 21.4031 -0.216687 19.9411 0.0411901L3.66492 2.91118C2.20261 3.16901 1.2227 4.56841 1.48053 6.03068L1.61997 6.8216C0.667632 7.23703 0 8.18722 0 9.29089V19.9506C0 21.4354 1.20801 22.6434 2.69285 22.6434H18.85C20.3348 22.6434 21.5428 21.4354 21.5428 19.9506V16.3246L22.774 16.1075C23.4824 15.9826 24.0997 15.5894 24.5123 15.0001C24.9249 14.4109 25.0833 13.6963 24.9584 12.988ZM23.3091 14.1577C23.1216 14.4255 22.8409 14.6042 22.519 14.661L21.5428 14.8331V9.29085C21.5428 7.80601 20.3348 6.59799 18.85 6.59799H3.0721L2.92708 5.7756C2.87029 5.45363 2.94236 5.12882 3.12988 4.86096C3.3174 4.59314 3.59804 4.41438 3.92001 4.35759L20.1962 1.48764C20.2678 1.47501 20.339 1.46894 20.4094 1.46894C20.9918 1.46894 21.5097 1.88746 21.6142 2.48052L23.5119 13.243C23.5686 13.565 23.4966 13.8898 23.3091 14.1577ZM18.85 21.1746H2.69285C2.01793 21.1746 1.46883 20.6255 1.46883 19.9506V14.7304H20.074V19.9505C20.074 20.6255 19.5249 21.1746 18.85 21.1746ZM2.69285 8.06687H18.85C19.5249 8.06687 20.074 8.61597 20.074 9.29089V9.92984H1.46883V9.29089C1.46883 8.61597 2.01793 8.06687 2.69285 8.06687ZM20.074 11.3987V13.2616H1.46883V11.3987H20.074Z" fill="white"/>
<path d="M24.9584 12.988L23.0607 2.22553C22.8028 0.763267 21.4031 -0.216687 19.9411 0.0411901L3.66492 2.91118C2.20261 3.16901 1.2227 4.56841 1.48053 6.03068L1.61997 6.8216C0.667632 7.23703 0 8.18722 0 9.29089V19.9506C0 21.4354 1.20801 22.6434 2.69285 22.6434H18.85C20.3348 22.6434 21.5428 21.4354 21.5428 19.9506V16.3246L22.774 16.1075C23.4824 15.9826 24.0997 15.5894 24.5123 15.0001C24.9249 14.4109 25.0833 13.6963 24.9584 12.988ZM23.3091 14.1577C23.1216 14.4255 22.8409 14.6042 22.519 14.661L21.5428 14.8331V9.29085C21.5428 7.80601 20.3348 6.59799 18.85 6.59799H3.0721L2.92708 5.7756C2.87029 5.45363 2.94236 5.12882 3.12988 4.86096C3.3174 4.59314 3.59804 4.41438 3.92001 4.35759L20.1962 1.48764C20.2678 1.47501 20.339 1.46894 20.4094 1.46894C20.9918 1.46894 21.5097 1.88746 21.6142 2.48052L23.5119 13.243C23.5686 13.565 23.4966 13.8898 23.3091 14.1577ZM18.85 21.1746H2.69285C2.01793 21.1746 1.46883 20.6255 1.46883 19.9506V14.7304H20.074V19.9505C20.074 20.6255 19.5249 21.1746 18.85 21.1746ZM2.69285 8.06687H18.85C19.5249 8.06687 20.074 8.61597 20.074 9.29089V9.92984H1.46883V9.29089C1.46883 8.61597 2.01793 8.06687 2.69285 8.06687ZM20.074 11.3987V13.2616H1.46883V11.3987H20.074Z" fill="url(#paint0_linear_75_4392)"/>
<path d="M24.9584 12.988L23.0607 2.22553C22.8028 0.763267 21.4031 -0.216687 19.9411 0.0411901L3.66492 2.91118C2.20261 3.16901 1.2227 4.56841 1.48053 6.03068L1.61997 6.8216C0.667632 7.23703 0 8.18722 0 9.29089V19.9506C0 21.4354 1.20801 22.6434 2.69285 22.6434H18.85C20.3348 22.6434 21.5428 21.4354 21.5428 19.9506V16.3246L22.774 16.1075C23.4824 15.9826 24.0997 15.5894 24.5123 15.0001C24.9249 14.4109 25.0833 13.6963 24.9584 12.988ZM23.3091 14.1577C23.1216 14.4255 22.8409 14.6042 22.519 14.661L21.5428 14.8331V9.29085C21.5428 7.80601 20.3348 6.59799 18.85 6.59799H3.0721L2.92708 5.7756C2.87029 5.45363 2.94236 5.12882 3.12988 4.86096C3.3174 4.59314 3.59804 4.41438 3.92001 4.35759L20.1962 1.48764C20.2678 1.47501 20.339 1.46894 20.4094 1.46894C20.9918 1.46894 21.5097 1.88746 21.6142 2.48052L23.5119 13.243C23.5686 13.565 23.4966 13.8898 23.3091 14.1577ZM18.85 21.1746H2.69285C2.01793 21.1746 1.46883 20.6255 1.46883 19.9506V14.7304H20.074V19.9505C20.074 20.6255 19.5249 21.1746 18.85 21.1746ZM2.69285 8.06687H18.85C19.5249 8.06687 20.074 8.61597 20.074 9.29089V9.92984H1.46883V9.29089C1.46883 8.61597 2.01793 8.06687 2.69285 8.06687ZM20.074 11.3987V13.2616H1.46883V11.3987H20.074Z" fill="#55A1FF" fill-opacity="0.5"/>
<path d="M7.06761 18.2252H3.73582C3.33023 18.2252 3.0014 18.554 3.0014 18.9596C3.0014 19.3652 3.33023 19.694 3.73582 19.694H7.06761C7.47321 19.694 7.80203 19.3652 7.80203 18.9596C7.80203 18.554 7.47321 18.2252 7.06761 18.2252Z" fill="white"/>
<defs>
<linearGradient id="paint0_linear_75_4392" x1="12.5" y1="0" x2="1.11561" y2="11.3123" gradientUnits="userSpaceOnUse">
<stop stop-color="#2F83EA"/>
<stop offset="1" stop-color="#14529E"/>
</linearGradient>
</defs>
</svg>
