<svg width="20" height="19" viewBox="0 0 20 19" fill="none" xmlns="http://www.w3.org/2000/svg">
<path fill-rule="evenodd" clip-rule="evenodd" d="M12.7385 8.34145C10.6369 8.34145 8.93331 10.045 8.93331 12.1467C8.93331 14.2483 10.6369 15.9518 12.7385 15.9518C13.6753 15.9518 14.5329 15.6132 15.1958 15.0518L16.2809 16.1154L16.2376 16.16C16.0937 16.3083 16.0973 16.5475 16.2456 16.6914L18.5158 18.8943C18.6642 19.0383 18.9033 19.0347 19.0473 18.8864L19.8669 18.0417C20.0109 17.8933 20.0072 17.6542 19.8589 17.5103L17.5887 15.3073C17.4404 15.1634 17.2012 15.167 17.0573 15.3153L17.0071 15.367L15.8932 14.2752C16.304 13.6677 16.5437 12.9352 16.5437 12.1466C16.5437 10.045 14.8402 8.34145 12.7385 8.34145ZM10.3422 1.27463L14.1801 7.92203C13.7728 7.78308 13.3391 7.70159 12.8884 7.68667L9.47511 1.77472L9.47454 1.77505C9.33436 1.53254 9.13953 1.33931 8.90906 1.20628C8.67745 1.07256 8.41287 1.00019 8.13445 1.00019C7.85603 1.00019 7.59141 1.07256 7.35984 1.20628C7.13558 1.33573 6.9451 1.52223 6.80578 1.75557C6.80159 1.76177 6.79756 1.76814 6.79378 1.77472L1.2113 11.4438L1.21187 11.4442L1.2113 11.4451C1.07054 11.6889 1.00019 11.954 1.00019 12.2184C1.00019 12.4829 1.07059 12.7479 1.2113 12.9917C1.35156 13.2346 1.5466 13.4282 1.77735 13.5615C2.00897 13.6952 2.27354 13.7676 2.552 13.7676H8.57952C8.71928 14.1258 8.90401 14.4614 9.12671 14.7677H2.55196C1.63405 14.7677 0.803175 14.288 0.344218 13.4931C-0.114739 12.6981 -0.114739 11.7388 0.344218 10.9438L5.92674 1.27463C6.3857 0.479669 7.21654 0 8.13449 0C9.0524 0 9.88324 0.47971 10.3422 1.27463ZM8.13445 10.0129C7.74893 10.0129 7.4364 10.3254 7.4364 10.7109C7.4364 11.0965 7.74893 11.409 8.13445 11.409C8.20674 11.409 8.27643 11.398 8.34202 11.3776C8.29859 11.6274 8.27578 11.8844 8.27578 12.1466C8.27578 12.4774 8.31202 12.7997 8.38037 13.11H2.55196C2.38721 13.11 2.23413 13.0692 2.10353 12.9938C1.97206 12.9179 1.86024 12.8063 1.77891 12.6655C1.69808 12.5255 1.65768 12.3722 1.65768 12.2184C1.65768 12.0649 1.69791 11.912 1.77838 11.7722L1.77891 11.7726L7.36144 2.10349C7.36452 2.09822 7.3674 2.09288 7.37011 2.0875C7.45062 1.95357 7.55919 1.84713 7.68605 1.77394C7.81666 1.69853 7.96974 1.65772 8.13449 1.65772C8.29924 1.65772 8.45232 1.69853 8.58293 1.77394C8.71435 1.84984 8.82621 1.96134 8.90754 2.10221L8.90812 2.10316L8.90754 2.10349L12.1516 7.72238C10.6078 7.92531 9.31246 8.91745 8.68402 10.2804C8.55613 10.1175 8.35752 10.0129 8.13445 10.0129ZM8.13449 9.28299C8.42771 9.28299 8.66845 9.0508 8.67905 8.75779L8.8168 4.94349C8.82231 4.79008 8.77102 4.65602 8.66446 4.54552C8.5579 4.43505 8.42578 4.37892 8.27228 4.37892C8.07753 4.37892 8.19153 4.37892 7.99678 4.37892C7.84329 4.37892 7.71116 4.43505 7.6046 4.54552C7.49804 4.65598 7.44671 4.79008 7.45226 4.94349L7.58997 8.75779C7.60049 9.0508 7.84123 9.28303 8.13449 9.28299ZM12.7385 9.45592C14.2245 9.45592 15.4292 10.6606 15.4292 12.1466C15.4292 13.6326 14.2245 14.8373 12.7385 14.8373C11.2525 14.8373 10.0478 13.6326 10.0478 12.1466C10.0478 10.6606 11.2525 9.45592 12.7385 9.45592Z" fill="white"/>
</svg>
