<svg width="20" height="20" viewBox="0 0 20 20" fill="none" xmlns="http://www.w3.org/2000/svg">
<path d="M1.35095 6.83316H5.06329C5.38633 6.83316 5.64821 6.57082 5.64821 6.24723C5.64821 5.92363 5.38633 5.66129 5.06329 5.66129H1.35095C1.02791 5.66129 0.76603 5.92363 0.76603 6.24723C0.76603 6.57082 1.02787 6.83316 1.35095 6.83316Z" fill="white"/>
<path d="M2.91074 4.09879H6.62307C6.94611 4.09879 7.20799 3.83645 7.20799 3.51285C7.20799 3.18926 6.94611 2.92691 6.62307 2.92691H2.91074C2.58769 2.92691 2.32581 3.18926 2.32581 3.51285C2.32581 3.83645 2.58769 4.09879 2.91074 4.09879Z" fill="white"/>
<path d="M14.7026 10.5617C17.6091 10.5617 19.9742 8.19258 19.9742 5.28086C19.9742 2.36914 17.6091 0 14.7026 0C11.7958 0 9.43064 2.36914 9.43064 5.28086C9.43064 8.19258 11.7958 10.5617 14.7026 10.5617ZM12.93 6.22227L14.1137 5.03633V2.93672C14.1137 2.61094 14.3771 2.34688 14.7026 2.34688C15.0277 2.34688 15.2912 2.61094 15.2912 2.93672V5.28086C15.2912 5.43711 15.2291 5.5875 15.1191 5.69805L13.7628 7.05664C13.6477 7.17188 13.4966 7.2293 13.3464 7.2293C13.1953 7.2293 13.0447 7.17188 12.93 7.05664C12.6997 6.82617 12.6997 6.45273 12.93 6.22227Z" fill="white"/>
<path d="M7.15269 8.79746H2.53091C2.30766 8.79746 2.10393 8.92441 2.00558 9.1248L0.666507 11.549H7.15269V8.79746Z" fill="white"/>
<path d="M9.30262 8.79727H8.32339V11.5488H13.1684C11.5585 11.1535 10.1843 10.1504 9.30262 8.79727Z" fill="white"/>
<path d="M19.8708 14.7109C18.3686 12.868 16.1592 12.7305 16.0105 12.7207H0.0192548L0.000130743 17.6539C-0.00689442 17.9695 0.270209 18.248 0.585561 18.2418H1.49727C1.49727 16.6266 2.8102 15.3129 4.42442 15.3129C6.03826 15.3129 7.35158 16.6266 7.35158 18.2418H12.6486C12.6486 16.6266 13.9615 15.3129 15.5757 15.3129C17.1895 15.3129 18.5029 16.6266 18.5029 18.2418H19.4146C19.7377 18.2418 20 17.9797 20 17.6559V15.0785C20 14.9445 19.9543 14.8156 19.8708 14.7109ZM10.6581 15.9695H9.34204C9.01888 15.9695 8.75661 15.707 8.75661 15.3836C8.75661 15.0602 9.01888 14.7977 9.34204 14.7977H10.6581C10.9812 14.7977 11.2435 15.0602 11.2435 15.3836C11.2435 15.707 10.9812 15.9695 10.6581 15.9695Z" fill="white"/>
<path d="M15.5758 16.4844C14.6072 16.4844 13.8195 17.273 13.8195 18.242C13.8195 19.2114 14.6072 20 15.5758 20C16.5441 20 17.3321 19.2114 17.3321 18.242C17.3321 17.273 16.5441 16.4844 15.5758 16.4844Z" fill="white"/>
<path d="M4.42446 16.4844C3.45616 16.4844 2.66817 17.273 2.66817 18.242C2.66817 19.2114 3.45616 20 4.42446 20C5.39312 20 6.18075 19.2114 6.18075 18.242C6.18075 17.273 5.39312 16.4844 4.42446 16.4844Z" fill="white"/>
</svg>
