<svg width="23" height="23" viewBox="0 0 23 23" fill="none" xmlns="http://www.w3.org/2000/svg">
<mask id="path-1-inside-1_2004_4" fill="white">
<path d="M19.51 12.4097C21.4309 12.4155 22.9883 14.0008 23 15.9616V19.4372C22.9883 21.3999 21.4327 22.9883 19.51 23H16.1054C14.1845 22.9879 12.6316 21.3981 12.6262 19.4372V15.9616C12.6262 13.9999 14.1836 12.4097 16.1054 12.4097H19.51ZM4.88795 12.4097C5.06414 12.3911 5.24199 12.423 5.4007 12.5018C5.5594 12.5805 5.6924 12.7028 5.78414 12.8544C5.87779 13.0076 5.92735 13.1836 5.92735 13.3631C5.92735 13.5427 5.87779 13.7187 5.78414 13.8719C5.6924 14.0234 5.5594 14.1458 5.4007 14.2245C5.24199 14.3033 5.06414 14.3352 4.88795 14.3166H3.48998C2.59829 14.3166 1.8728 15.0511 1.86786 15.9616V19.3937C1.89032 20.2966 2.60547 21.0216 3.48998 21.0387H6.91797C7.13133 21.0399 7.34274 20.9981 7.53967 20.916C7.73659 20.8339 7.91502 20.7131 8.06438 20.5607C8.37023 20.249 8.54112 19.8295 8.5401 19.3928V14.2402L8.52573 14.1122C8.51758 13.9444 8.55342 13.7774 8.6297 13.6276C8.70597 13.4779 8.82002 13.3508 8.96057 13.2587C9.11813 13.1563 9.30318 13.1044 9.491 13.11C9.67882 13.1155 9.86048 13.1782 10.0117 13.2897C10.1647 13.4032 10.2807 13.5593 10.3454 13.7384C10.4102 13.9176 10.4207 14.1118 10.3756 14.2968V19.4265C10.3756 21.394 8.81322 22.9892 6.88563 22.9892H3.48998C1.57901 22.9488 0.0395362 21.377 4.99498e-06 19.4265V15.9616C-0.00156217 15.0215 0.365697 14.1183 1.02288 13.446C1.34421 13.1175 1.72802 12.8565 2.15171 12.6785C2.57541 12.5006 3.03043 12.4091 3.48998 12.4097H4.88795ZM19.51 14.3166H16.1054C15.2155 14.3166 14.4936 15.0529 14.4936 15.9616V19.4372C14.4898 19.8732 14.6584 20.293 14.9626 20.6052C15.1111 20.7577 15.2889 20.8786 15.4853 20.9608C15.6816 21.043 15.8925 21.0848 16.1054 21.0836H19.51C19.7229 21.0848 19.9338 21.043 20.1301 20.9608C20.3265 20.8786 20.5043 20.7577 20.6528 20.6052C20.957 20.293 21.1256 19.8732 21.1218 19.4372V15.9616C21.1223 15.5271 20.9528 15.1095 20.6497 14.7982C20.5014 14.646 20.3242 14.5251 20.1284 14.4424C19.9327 14.3597 19.7225 14.3169 19.51 14.3166ZM19.51 0C21.4165 0.0449219 22.9497 1.61719 22.9892 3.56275V7.02758C23.0024 7.9658 22.6476 8.87187 22.0009 9.55174C21.6848 9.88425 21.3054 10.1503 20.8851 10.3343C20.4648 10.5182 20.0119 10.6164 19.5531 10.6231H18.1439C17.9121 10.5933 17.6992 10.48 17.5448 10.3046C17.3904 10.1291 17.3053 9.90337 17.3053 9.66966C17.3053 9.43595 17.3904 9.21024 17.5448 9.03475C17.6992 8.85927 17.9121 8.74602 18.1439 8.71619H19.51C19.7247 8.71458 19.937 8.66989 20.1341 8.58478C20.3313 8.49967 20.5093 8.37587 20.6578 8.2207C20.9614 7.90301 21.1279 7.47866 21.1214 7.03926V3.56275C21.1101 2.65893 20.3945 1.93164 19.51 1.91771H16.1054C15.2155 1.91771 14.4936 2.65398 14.4936 3.56275V8.75976L14.4828 8.87926C14.4494 9.107 14.335 9.31506 14.1605 9.46524C13.9861 9.61542 13.7633 9.69765 13.5332 9.69683C13.4098 9.69371 13.2883 9.66581 13.176 9.6148C13.0636 9.56379 12.9627 9.49071 12.8791 9.3999C12.7075 9.21399 12.6166 8.96766 12.6262 8.71484V3.56275C12.6215 2.62257 12.9861 1.71813 13.6414 1.04398C13.9617 0.714357 14.3447 0.452169 14.7679 0.272871C15.191 0.0935738 15.6458 0.000794144 16.1054 0H19.51ZM6.89461 0C8.81951 0.00583984 10.377 1.59742 10.3846 3.56275V7.03836C10.3862 7.97848 10.0189 8.88171 9.36172 9.55398C9.04042 9.88257 8.65662 10.1435 8.23291 10.3215C7.80921 10.4995 7.35418 10.5909 6.89461 10.5903H3.48998C1.56913 10.5845 0.0116847 8.9992 4.99498e-06 7.03836V3.56275C0.0116847 1.60012 1.56733 0.0116797 3.48998 0H6.89461ZM6.89461 1.91771H3.48998C3.27486 1.91359 3.06114 1.9531 2.86171 2.03386C2.66228 2.11462 2.48129 2.23495 2.32965 2.3876C2.01925 2.69984 1.84541 3.12248 1.84629 3.56275V7.03836C1.84167 7.25907 1.88099 7.4785 1.96197 7.68387C2.04295 7.88925 2.16396 8.07646 2.31797 8.23463C2.47019 8.39045 2.65271 8.51345 2.85427 8.59604C3.05584 8.67863 3.27219 8.71906 3.48998 8.71484H6.89461C7.10902 8.71322 7.32093 8.66866 7.51783 8.58379C7.71472 8.49892 7.89262 8.37546 8.04102 8.2207C8.34461 7.90295 8.51125 7.47868 8.50506 7.03926V3.56275C8.49922 2.65668 7.78092 1.92355 6.89326 1.91771H6.89461Z"/>
<path d="M22.9892 3.56275C22.9497 1.61719 21.4165 0.0449219 19.51 0H16.1054C15.6458 0.000794144 15.191 0.0935738 14.7679 0.272871C14.3447 0.452169 13.9617 0.714357 13.6414 1.04398C12.9861 1.71813 12.6215 2.62257 12.6262 3.56275V8.71484C12.6166 8.96766 12.7075 9.21399 12.8791 9.3999C12.9627 9.49071 13.0636 9.56379 13.176 9.6148C13.2883 9.66581 13.4098 9.69371 13.5332 9.69683C13.7633 9.69765 13.9861 9.61542 14.1605 9.46524C14.335 9.31506 14.4494 9.107 14.4828 8.87926L14.4936 8.75976V3.56275C14.4936 2.65398 15.2155 1.91771 16.1054 1.91771H19.51C20.3945 1.93164 21.1101 2.65893 21.1214 3.56275V7.03926C21.1279 7.47866 20.9614 7.90301 20.6578 8.2207C20.5093 8.37587 20.3313 8.49967 20.1341 8.58478C19.937 8.66989 19.7247 8.71458 19.51 8.71619H18.1439C17.9121 8.74602 17.6992 8.85927 17.5448 9.03475C17.3904 9.21024 17.3053 9.43595 17.3053 9.66966C17.3053 9.90337 17.3904 10.1291 17.5448 10.3046C17.6992 10.48 17.9121 10.5933 18.1439 10.6231H19.5531C20.0119 10.6164 20.4648 10.5182 20.8851 10.3343C21.3054 10.1503 21.6848 9.88425 22.0009 9.55174C22.6476 8.87187 23.0024 7.9658 22.9892 7.02758V3.56275Z"/>
</mask>
<path d="M19.51 12.4097C21.4309 12.4155 22.9883 14.0008 23 15.9616V19.4372C22.9883 21.3999 21.4327 22.9883 19.51 23H16.1054C14.1845 22.9879 12.6316 21.3981 12.6262 19.4372V15.9616C12.6262 13.9999 14.1836 12.4097 16.1054 12.4097H19.51ZM4.88795 12.4097C5.06414 12.3911 5.24199 12.423 5.4007 12.5018C5.5594 12.5805 5.6924 12.7028 5.78414 12.8544C5.87779 13.0076 5.92735 13.1836 5.92735 13.3631C5.92735 13.5427 5.87779 13.7187 5.78414 13.8719C5.6924 14.0234 5.5594 14.1458 5.4007 14.2245C5.24199 14.3033 5.06414 14.3352 4.88795 14.3166H3.48998C2.59829 14.3166 1.8728 15.0511 1.86786 15.9616V19.3937C1.89032 20.2966 2.60547 21.0216 3.48998 21.0387H6.91797C7.13133 21.0399 7.34274 20.9981 7.53967 20.916C7.73659 20.8339 7.91502 20.7131 8.06438 20.5607C8.37023 20.249 8.54112 19.8295 8.5401 19.3928V14.2402L8.52573 14.1122C8.51758 13.9444 8.55342 13.7774 8.6297 13.6276C8.70597 13.4779 8.82002 13.3508 8.96057 13.2587C9.11813 13.1563 9.30318 13.1044 9.491 13.11C9.67882 13.1155 9.86048 13.1782 10.0117 13.2897C10.1647 13.4032 10.2807 13.5593 10.3454 13.7384C10.4102 13.9176 10.4207 14.1118 10.3756 14.2968V19.4265C10.3756 21.394 8.81322 22.9892 6.88563 22.9892H3.48998C1.57901 22.9488 0.0395362 21.377 4.99498e-06 19.4265V15.9616C-0.00156217 15.0215 0.365697 14.1183 1.02288 13.446C1.34421 13.1175 1.72802 12.8565 2.15171 12.6785C2.57541 12.5006 3.03043 12.4091 3.48998 12.4097H4.88795ZM19.51 14.3166H16.1054C15.2155 14.3166 14.4936 15.0529 14.4936 15.9616V19.4372C14.4898 19.8732 14.6584 20.293 14.9626 20.6052C15.1111 20.7577 15.2889 20.8786 15.4853 20.9608C15.6816 21.043 15.8925 21.0848 16.1054 21.0836H19.51C19.7229 21.0848 19.9338 21.043 20.1301 20.9608C20.3265 20.8786 20.5043 20.7577 20.6528 20.6052C20.957 20.293 21.1256 19.8732 21.1218 19.4372V15.9616C21.1223 15.5271 20.9528 15.1095 20.6497 14.7982C20.5014 14.646 20.3242 14.5251 20.1284 14.4424C19.9327 14.3597 19.7225 14.3169 19.51 14.3166ZM19.51 0C21.4165 0.0449219 22.9497 1.61719 22.9892 3.56275V7.02758C23.0024 7.9658 22.6476 8.87187 22.0009 9.55174C21.6848 9.88425 21.3054 10.1503 20.8851 10.3343C20.4648 10.5182 20.0119 10.6164 19.5531 10.6231H18.1439C17.9121 10.5933 17.6992 10.48 17.5448 10.3046C17.3904 10.1291 17.3053 9.90337 17.3053 9.66966C17.3053 9.43595 17.3904 9.21024 17.5448 9.03475C17.6992 8.85927 17.9121 8.74602 18.1439 8.71619H19.51C19.7247 8.71458 19.937 8.66989 20.1341 8.58478C20.3313 8.49967 20.5093 8.37587 20.6578 8.2207C20.9614 7.90301 21.1279 7.47866 21.1214 7.03926V3.56275C21.1101 2.65893 20.3945 1.93164 19.51 1.91771H16.1054C15.2155 1.91771 14.4936 2.65398 14.4936 3.56275V8.75976L14.4828 8.87926C14.4494 9.107 14.335 9.31506 14.1605 9.46524C13.9861 9.61542 13.7633 9.69765 13.5332 9.69683C13.4098 9.69371 13.2883 9.66581 13.176 9.6148C13.0636 9.56379 12.9627 9.49071 12.8791 9.3999C12.7075 9.21399 12.6166 8.96766 12.6262 8.71484V3.56275C12.6215 2.62257 12.9861 1.71813 13.6414 1.04398C13.9617 0.714357 14.3447 0.452169 14.7679 0.272871C15.191 0.0935738 15.6458 0.000794144 16.1054 0H19.51ZM6.89461 0C8.81951 0.00583984 10.377 1.59742 10.3846 3.56275V7.03836C10.3862 7.97848 10.0189 8.88171 9.36172 9.55398C9.04042 9.88257 8.65662 10.1435 8.23291 10.3215C7.80921 10.4995 7.35418 10.5909 6.89461 10.5903H3.48998C1.56913 10.5845 0.0116847 8.9992 4.99498e-06 7.03836V3.56275C0.0116847 1.60012 1.56733 0.0116797 3.48998 0H6.89461ZM6.89461 1.91771H3.48998C3.27486 1.91359 3.06114 1.9531 2.86171 2.03386C2.66228 2.11462 2.48129 2.23495 2.32965 2.3876C2.01925 2.69984 1.84541 3.12248 1.84629 3.56275V7.03836C1.84167 7.25907 1.88099 7.4785 1.96197 7.68387C2.04295 7.88925 2.16396 8.07646 2.31797 8.23463C2.47019 8.39045 2.65271 8.51345 2.85427 8.59604C3.05584 8.67863 3.27219 8.71906 3.48998 8.71484H6.89461C7.10902 8.71322 7.32093 8.66866 7.51783 8.58379C7.71472 8.49892 7.89262 8.37546 8.04102 8.2207C8.34461 7.90295 8.51125 7.47868 8.50506 7.03926V3.56275C8.49922 2.65668 7.78092 1.92355 6.89326 1.91771H6.89461Z" fill="url(#paint0_linear_2004_4)"/>
<path d="M19.51 12.4097C21.4309 12.4155 22.9883 14.0008 23 15.9616V19.4372C22.9883 21.3999 21.4327 22.9883 19.51 23H16.1054C14.1845 22.9879 12.6316 21.3981 12.6262 19.4372V15.9616C12.6262 13.9999 14.1836 12.4097 16.1054 12.4097H19.51ZM4.88795 12.4097C5.06414 12.3911 5.24199 12.423 5.4007 12.5018C5.5594 12.5805 5.6924 12.7028 5.78414 12.8544C5.87779 13.0076 5.92735 13.1836 5.92735 13.3631C5.92735 13.5427 5.87779 13.7187 5.78414 13.8719C5.6924 14.0234 5.5594 14.1458 5.4007 14.2245C5.24199 14.3033 5.06414 14.3352 4.88795 14.3166H3.48998C2.59829 14.3166 1.8728 15.0511 1.86786 15.9616V19.3937C1.89032 20.2966 2.60547 21.0216 3.48998 21.0387H6.91797C7.13133 21.0399 7.34274 20.9981 7.53967 20.916C7.73659 20.8339 7.91502 20.7131 8.06438 20.5607C8.37023 20.249 8.54112 19.8295 8.5401 19.3928V14.2402L8.52573 14.1122C8.51758 13.9444 8.55342 13.7774 8.6297 13.6276C8.70597 13.4779 8.82002 13.3508 8.96057 13.2587C9.11813 13.1563 9.30318 13.1044 9.491 13.11C9.67882 13.1155 9.86048 13.1782 10.0117 13.2897C10.1647 13.4032 10.2807 13.5593 10.3454 13.7384C10.4102 13.9176 10.4207 14.1118 10.3756 14.2968V19.4265C10.3756 21.394 8.81322 22.9892 6.88563 22.9892H3.48998C1.57901 22.9488 0.0395362 21.377 4.99498e-06 19.4265V15.9616C-0.00156217 15.0215 0.365697 14.1183 1.02288 13.446C1.34421 13.1175 1.72802 12.8565 2.15171 12.6785C2.57541 12.5006 3.03043 12.4091 3.48998 12.4097H4.88795ZM19.51 14.3166H16.1054C15.2155 14.3166 14.4936 15.0529 14.4936 15.9616V19.4372C14.4898 19.8732 14.6584 20.293 14.9626 20.6052C15.1111 20.7577 15.2889 20.8786 15.4853 20.9608C15.6816 21.043 15.8925 21.0848 16.1054 21.0836H19.51C19.7229 21.0848 19.9338 21.043 20.1301 20.9608C20.3265 20.8786 20.5043 20.7577 20.6528 20.6052C20.957 20.293 21.1256 19.8732 21.1218 19.4372V15.9616C21.1223 15.5271 20.9528 15.1095 20.6497 14.7982C20.5014 14.646 20.3242 14.5251 20.1284 14.4424C19.9327 14.3597 19.7225 14.3169 19.51 14.3166ZM19.51 0C21.4165 0.0449219 22.9497 1.61719 22.9892 3.56275V7.02758C23.0024 7.9658 22.6476 8.87187 22.0009 9.55174C21.6848 9.88425 21.3054 10.1503 20.8851 10.3343C20.4648 10.5182 20.0119 10.6164 19.5531 10.6231H18.1439C17.9121 10.5933 17.6992 10.48 17.5448 10.3046C17.3904 10.1291 17.3053 9.90337 17.3053 9.66966C17.3053 9.43595 17.3904 9.21024 17.5448 9.03475C17.6992 8.85927 17.9121 8.74602 18.1439 8.71619H19.51C19.7247 8.71458 19.937 8.66989 20.1341 8.58478C20.3313 8.49967 20.5093 8.37587 20.6578 8.2207C20.9614 7.90301 21.1279 7.47866 21.1214 7.03926V3.56275C21.1101 2.65893 20.3945 1.93164 19.51 1.91771H16.1054C15.2155 1.91771 14.4936 2.65398 14.4936 3.56275V8.75976L14.4828 8.87926C14.4494 9.107 14.335 9.31506 14.1605 9.46524C13.9861 9.61542 13.7633 9.69765 13.5332 9.69683C13.4098 9.69371 13.2883 9.66581 13.176 9.6148C13.0636 9.56379 12.9627 9.49071 12.8791 9.3999C12.7075 9.21399 12.6166 8.96766 12.6262 8.71484V3.56275C12.6215 2.62257 12.9861 1.71813 13.6414 1.04398C13.9617 0.714357 14.3447 0.452169 14.7679 0.272871C15.191 0.0935738 15.6458 0.000794144 16.1054 0H19.51ZM6.89461 0C8.81951 0.00583984 10.377 1.59742 10.3846 3.56275V7.03836C10.3862 7.97848 10.0189 8.88171 9.36172 9.55398C9.04042 9.88257 8.65662 10.1435 8.23291 10.3215C7.80921 10.4995 7.35418 10.5909 6.89461 10.5903H3.48998C1.56913 10.5845 0.0116847 8.9992 4.99498e-06 7.03836V3.56275C0.0116847 1.60012 1.56733 0.0116797 3.48998 0H6.89461ZM6.89461 1.91771H3.48998C3.27486 1.91359 3.06114 1.9531 2.86171 2.03386C2.66228 2.11462 2.48129 2.23495 2.32965 2.3876C2.01925 2.69984 1.84541 3.12248 1.84629 3.56275V7.03836C1.84167 7.25907 1.88099 7.4785 1.96197 7.68387C2.04295 7.88925 2.16396 8.07646 2.31797 8.23463C2.47019 8.39045 2.65271 8.51345 2.85427 8.59604C3.05584 8.67863 3.27219 8.71906 3.48998 8.71484H6.89461C7.10902 8.71322 7.32093 8.66866 7.51783 8.58379C7.71472 8.49892 7.89262 8.37546 8.04102 8.2207C8.34461 7.90295 8.51125 7.47868 8.50506 7.03926V3.56275C8.49922 2.65668 7.78092 1.92355 6.89326 1.91771H6.89461Z" fill="#55A1FF" fill-opacity="0.5"/>
<path d="M22.9892 3.56275C22.9497 1.61719 21.4165 0.0449219 19.51 0H16.1054C15.6458 0.000794144 15.191 0.0935738 14.7679 0.272871C14.3447 0.452169 13.9617 0.714357 13.6414 1.04398C12.9861 1.71813 12.6215 2.62257 12.6262 3.56275V8.71484C12.6166 8.96766 12.7075 9.21399 12.8791 9.3999C12.9627 9.49071 13.0636 9.56379 13.176 9.6148C13.2883 9.66581 13.4098 9.69371 13.5332 9.69683C13.7633 9.69765 13.9861 9.61542 14.1605 9.46524C14.335 9.31506 14.4494 9.107 14.4828 8.87926L14.4936 8.75976V3.56275C14.4936 2.65398 15.2155 1.91771 16.1054 1.91771H19.51C20.3945 1.93164 21.1101 2.65893 21.1214 3.56275V7.03926C21.1279 7.47866 20.9614 7.90301 20.6578 8.2207C20.5093 8.37587 20.3313 8.49967 20.1341 8.58478C19.937 8.66989 19.7247 8.71458 19.51 8.71619H18.1439C17.9121 8.74602 17.6992 8.85927 17.5448 9.03475C17.3904 9.21024 17.3053 9.43595 17.3053 9.66966C17.3053 9.90337 17.3904 10.1291 17.5448 10.3046C17.6992 10.48 17.9121 10.5933 18.1439 10.6231H19.5531C20.0119 10.6164 20.4648 10.5182 20.8851 10.3343C21.3054 10.1503 21.6848 9.88425 22.0009 9.55174C22.6476 8.87187 23.0024 7.9658 22.9892 7.02758V3.56275Z" fill="url(#paint1_linear_2004_4)"/>
<path d="M22.9892 3.56275C22.9497 1.61719 21.4165 0.0449219 19.51 0H16.1054C15.6458 0.000794144 15.191 0.0935738 14.7679 0.272871C14.3447 0.452169 13.9617 0.714357 13.6414 1.04398C12.9861 1.71813 12.6215 2.62257 12.6262 3.56275V8.71484C12.6166 8.96766 12.7075 9.21399 12.8791 9.3999C12.9627 9.49071 13.0636 9.56379 13.176 9.6148C13.2883 9.66581 13.4098 9.69371 13.5332 9.69683C13.7633 9.69765 13.9861 9.61542 14.1605 9.46524C14.335 9.31506 14.4494 9.107 14.4828 8.87926L14.4936 8.75976V3.56275C14.4936 2.65398 15.2155 1.91771 16.1054 1.91771H19.51C20.3945 1.93164 21.1101 2.65893 21.1214 3.56275V7.03926C21.1279 7.47866 20.9614 7.90301 20.6578 8.2207C20.5093 8.37587 20.3313 8.49967 20.1341 8.58478C19.937 8.66989 19.7247 8.71458 19.51 8.71619H18.1439C17.9121 8.74602 17.6992 8.85927 17.5448 9.03475C17.3904 9.21024 17.3053 9.43595 17.3053 9.66966C17.3053 9.90337 17.3904 10.1291 17.5448 10.3046C17.6992 10.48 17.9121 10.5933 18.1439 10.6231H19.5531C20.0119 10.6164 20.4648 10.5182 20.8851 10.3343C21.3054 10.1503 21.6848 9.88425 22.0009 9.55174C22.6476 8.87187 23.0024 7.9658 22.9892 7.02758V3.56275Z" fill="#55A1FF" fill-opacity="0.5"/>
<path d="M19.51 12.4097C21.4309 12.4155 22.9883 14.0008 23 15.9616V19.4372C22.9883 21.3999 21.4327 22.9883 19.51 23H16.1054C14.1845 22.9879 12.6316 21.3981 12.6262 19.4372V15.9616C12.6262 13.9999 14.1836 12.4097 16.1054 12.4097H19.51ZM4.88795 12.4097C5.06414 12.3911 5.24199 12.423 5.4007 12.5018C5.5594 12.5805 5.6924 12.7028 5.78414 12.8544C5.87779 13.0076 5.92735 13.1836 5.92735 13.3631C5.92735 13.5427 5.87779 13.7187 5.78414 13.8719C5.6924 14.0234 5.5594 14.1458 5.4007 14.2245C5.24199 14.3033 5.06414 14.3352 4.88795 14.3166H3.48998C2.59829 14.3166 1.8728 15.0511 1.86786 15.9616V19.3937C1.89032 20.2966 2.60547 21.0216 3.48998 21.0387H6.91797C7.13133 21.0399 7.34274 20.9981 7.53967 20.916C7.73659 20.8339 7.91502 20.7131 8.06438 20.5607C8.37023 20.249 8.54112 19.8295 8.5401 19.3928V14.2402L8.52573 14.1122C8.51758 13.9444 8.55342 13.7774 8.6297 13.6276C8.70597 13.4779 8.82002 13.3508 8.96057 13.2587C9.11813 13.1563 9.30318 13.1044 9.491 13.11C9.67882 13.1155 9.86048 13.1782 10.0117 13.2897C10.1647 13.4032 10.2807 13.5593 10.3454 13.7384C10.4102 13.9176 10.4207 14.1118 10.3756 14.2968V19.4265C10.3756 21.394 8.81322 22.9892 6.88563 22.9892H3.48998C1.57901 22.9488 0.0395362 21.377 4.99498e-06 19.4265V15.9616C-0.00156217 15.0215 0.365697 14.1183 1.02288 13.446C1.34421 13.1175 1.72802 12.8565 2.15171 12.6785C2.57541 12.5006 3.03043 12.4091 3.48998 12.4097H4.88795ZM19.51 14.3166H16.1054C15.2155 14.3166 14.4936 15.0529 14.4936 15.9616V19.4372C14.4898 19.8732 14.6584 20.293 14.9626 20.6052C15.1111 20.7577 15.2889 20.8786 15.4853 20.9608C15.6816 21.043 15.8925 21.0848 16.1054 21.0836H19.51C19.7229 21.0848 19.9338 21.043 20.1301 20.9608C20.3265 20.8786 20.5043 20.7577 20.6528 20.6052C20.957 20.293 21.1256 19.8732 21.1218 19.4372V15.9616C21.1223 15.5271 20.9528 15.1095 20.6497 14.7982C20.5014 14.646 20.3242 14.5251 20.1284 14.4424C19.9327 14.3597 19.7225 14.3169 19.51 14.3166ZM19.51 0C21.4165 0.0449219 22.9497 1.61719 22.9892 3.56275V7.02758C23.0024 7.9658 22.6476 8.87187 22.0009 9.55174C21.6848 9.88425 21.3054 10.1503 20.8851 10.3343C20.4648 10.5182 20.0119 10.6164 19.5531 10.6231H18.1439C17.9121 10.5933 17.6992 10.48 17.5448 10.3046C17.3904 10.1291 17.3053 9.90337 17.3053 9.66966C17.3053 9.43595 17.3904 9.21024 17.5448 9.03475C17.6992 8.85927 17.9121 8.74602 18.1439 8.71619H19.51C19.7247 8.71458 19.937 8.66989 20.1341 8.58478C20.3313 8.49967 20.5093 8.37587 20.6578 8.2207C20.9614 7.90301 21.1279 7.47866 21.1214 7.03926V3.56275C21.1101 2.65893 20.3945 1.93164 19.51 1.91771H16.1054C15.2155 1.91771 14.4936 2.65398 14.4936 3.56275V8.75976L14.4828 8.87926C14.4494 9.107 14.335 9.31506 14.1605 9.46524C13.9861 9.61542 13.7633 9.69765 13.5332 9.69683C13.4098 9.69371 13.2883 9.66581 13.176 9.6148C13.0636 9.56379 12.9627 9.49071 12.8791 9.3999C12.7075 9.21399 12.6166 8.96766 12.6262 8.71484V3.56275C12.6215 2.62257 12.9861 1.71813 13.6414 1.04398C13.9617 0.714357 14.3447 0.452169 14.7679 0.272871C15.191 0.0935738 15.6458 0.000794144 16.1054 0H19.51ZM6.89461 0C8.81951 0.00583984 10.377 1.59742 10.3846 3.56275V7.03836C10.3862 7.97848 10.0189 8.88171 9.36172 9.55398C9.04042 9.88257 8.65662 10.1435 8.23291 10.3215C7.80921 10.4995 7.35418 10.5909 6.89461 10.5903H3.48998C1.56913 10.5845 0.0116847 8.9992 4.99498e-06 7.03836V3.56275C0.0116847 1.60012 1.56733 0.0116797 3.48998 0H6.89461ZM6.89461 1.91771H3.48998C3.27486 1.91359 3.06114 1.9531 2.86171 2.03386C2.66228 2.11462 2.48129 2.23495 2.32965 2.3876C2.01925 2.69984 1.84541 3.12248 1.84629 3.56275V7.03836C1.84167 7.25907 1.88099 7.4785 1.96197 7.68387C2.04295 7.88925 2.16396 8.07646 2.31797 8.23463C2.47019 8.39045 2.65271 8.51345 2.85427 8.59604C3.05584 8.67863 3.27219 8.71906 3.48998 8.71484H6.89461C7.10902 8.71322 7.32093 8.66866 7.51783 8.58379C7.71472 8.49892 7.89262 8.37546 8.04102 8.2207C8.34461 7.90295 8.51125 7.47868 8.50506 7.03926V3.56275C8.49922 2.65668 7.78092 1.92355 6.89326 1.91771H6.89461Z" stroke="black" stroke-width="0.4" mask="url(#path-1-inside-1_2004_4)"/>
<path d="M22.9892 3.56275C22.9497 1.61719 21.4165 0.0449219 19.51 0H16.1054C15.6458 0.000794144 15.191 0.0935738 14.7679 0.272871C14.3447 0.452169 13.9617 0.714357 13.6414 1.04398C12.9861 1.71813 12.6215 2.62257 12.6262 3.56275V8.71484C12.6166 8.96766 12.7075 9.21399 12.8791 9.3999C12.9627 9.49071 13.0636 9.56379 13.176 9.6148C13.2883 9.66581 13.4098 9.69371 13.5332 9.69683C13.7633 9.69765 13.9861 9.61542 14.1605 9.46524C14.335 9.31506 14.4494 9.107 14.4828 8.87926L14.4936 8.75976V3.56275C14.4936 2.65398 15.2155 1.91771 16.1054 1.91771H19.51C20.3945 1.93164 21.1101 2.65893 21.1214 3.56275V7.03926C21.1279 7.47866 20.9614 7.90301 20.6578 8.2207C20.5093 8.37587 20.3313 8.49967 20.1341 8.58478C19.937 8.66989 19.7247 8.71458 19.51 8.71619H18.1439C17.9121 8.74602 17.6992 8.85927 17.5448 9.03475C17.3904 9.21024 17.3053 9.43595 17.3053 9.66966C17.3053 9.90337 17.3904 10.1291 17.5448 10.3046C17.6992 10.48 17.9121 10.5933 18.1439 10.6231H19.5531C20.0119 10.6164 20.4648 10.5182 20.8851 10.3343C21.3054 10.1503 21.6848 9.88425 22.0009 9.55174C22.6476 8.87187 23.0024 7.9658 22.9892 7.02758V3.56275Z" stroke="black" stroke-width="0.4" mask="url(#path-1-inside-1_2004_4)"/>
<path d="M13.7126 1.11369L13.7126 1.11367C14.0236 0.793613 14.3955 0.539038 14.8064 0.364947C15.2172 0.190867 15.6588 0.100782 16.105 0.1H19.5083C21.3585 0.144223 22.8497 1.67064 22.8887 3.56376L22.8887 7.02758L22.8887 7.02898C22.9015 7.94106 22.5567 8.82189 21.928 9.48282L21.928 9.48283C21.621 9.8057 21.2526 10.064 20.8445 10.2427C20.4366 10.4212 19.9971 10.5166 19.5519 10.5231H18.15C17.9447 10.4952 17.7563 10.3942 17.6194 10.2385C17.4811 10.0813 17.4048 9.87906 17.4048 9.66966C17.4048 9.46026 17.4811 9.25803 17.6194 9.1008C17.7563 8.94513 17.9447 8.84412 18.15 8.81619L19.5095 8.81619L19.5103 8.81619C19.7384 8.81447 19.9638 8.767 20.1733 8.67659C20.3827 8.58618 20.5718 8.45466 20.7295 8.28983L20.7296 8.28979C21.0512 7.95332 21.2276 7.50392 21.2209 7.03854L21.2209 3.56275L21.2209 3.56151C21.209 2.60505 20.4512 1.83253 19.5111 1.81773L19.5111 1.81771H19.5095H16.1049C15.1579 1.81771 14.3931 2.60067 14.3931 3.56275V8.75526L14.383 8.86742C14.3526 9.07031 14.2503 9.25557 14.0948 9.38946C13.9389 9.5237 13.7398 9.59731 13.5341 9.59684C13.4245 9.59392 13.3166 9.56907 13.2168 9.52375C13.1167 9.47828 13.0267 9.41314 12.9522 9.33219L12.9521 9.33208C12.7984 9.1656 12.717 8.94503 12.7256 8.71865L12.7257 8.71865V8.71484L12.7257 3.56275L12.7257 3.56226C12.7211 2.64828 13.0755 1.76904 13.7126 1.11369Z" fill="white" stroke="black" stroke-width="0.2"/>
<defs>
<linearGradient id="paint0_linear_2004_4" x1="11.5" y1="0" x2="1.57004e-06" y2="10.35" gradientUnits="userSpaceOnUse">
<stop stop-color="#2F83EA"/>
<stop offset="1" stop-color="#14529E"/>
</linearGradient>
<linearGradient id="paint1_linear_2004_4" x1="11.5" y1="0" x2="1.57004e-06" y2="10.35" gradientUnits="userSpaceOnUse">
<stop stop-color="#2F83EA"/>
<stop offset="1" stop-color="#14529E"/>
</linearGradient>
</defs>
</svg>
