<svg width="22" height="22" viewBox="0 0 22 22" fill="none" xmlns="http://www.w3.org/2000/svg">
<path d="M20.8848 15.8439L20.8847 15.8439C21.0242 16.1744 21.0973 16.529 21.1 16.8876L21.1 16.8885C21.0992 17.3575 20.9933 17.8203 20.7901 18.2431C20.5948 18.6602 20.3377 19.0455 20.0274 19.386C19.5291 19.9522 18.9078 20.3972 18.2111 20.6871L18.2106 20.6873C17.5382 20.9634 16.8177 21.1037 16.0907 21.0999L16.0895 21.0999C14.9343 21.0802 13.7951 20.827 12.7406 20.3557C11.5507 19.8416 10.4231 19.1943 9.37949 18.4262C8.26533 17.6113 7.2134 16.7148 6.23243 15.744L6.23184 15.7434C5.26012 14.7657 4.36343 13.7164 3.54936 12.6043L3.54934 12.6043C2.79136 11.5682 2.14923 10.4524 1.63442 9.27682C1.16847 8.21871 0.918816 7.07832 0.900098 5.92256L0.900081 5.9215C0.896106 5.20546 1.02943 4.49529 1.29286 3.82932L1.29301 3.82892C1.57246 3.13128 2.00364 2.50438 2.55536 1.99355C2.87541 1.65543 3.25986 1.38453 3.68616 1.19675C4.11349 1.00853 4.57423 0.907633 5.04121 0.90002L5.04261 0.899997C5.42215 0.899141 5.79712 0.982706 6.14029 1.14463C6.51735 1.31784 6.84086 1.5891 7.07692 1.93004C7.07704 1.93022 7.07716 1.93039 7.07728 1.93056L9.23289 4.96559C9.41864 5.21595 9.5735 5.48775 9.69412 5.77513C9.81532 6.04953 9.87997 6.3455 9.8842 6.6454L9.88423 6.6473C9.88235 7.02781 9.77425 7.40025 9.57209 7.72275C9.57187 7.72309 9.57166 7.72344 9.57144 7.72378L9.48675 7.67062C9.31449 7.96036 9.10465 8.2261 8.86269 8.46095L20.8848 15.8439ZM20.8848 15.8439L20.8838 15.8417C20.7146 15.4665 20.4436 15.146 20.1016 14.9166L17.0087 12.7244L17.0083 12.7241C16.7584 12.5487 16.4906 12.4001 16.2094 12.2809C15.9058 12.1453 15.5741 12.0843 15.2421 12.1031C14.9102 12.1218 14.5876 12.2196 14.3014 12.3884C13.9839 12.5635 13.6945 12.7852 13.443 13.0462L12.8277 13.6182C12.472 13.4107 12.1379 13.1684 11.8302 12.8947L11.8302 12.8947L11.8284 12.8932C11.4062 12.5356 10.9497 12.1143 10.4007 11.5752C9.97228 11.1391 9.54181 10.6713 9.08935 10.1479L9.08935 10.1479L9.08852 10.147C8.8117 9.83479 8.5626 9.49915 8.34402 9.14386L8.93355 8.53152L20.8848 15.8439ZM5.04284 1.00001C5.40772 0.999174 5.76821 1.07955 6.09808 1.23529C6.45925 1.40109 6.76907 1.6609 6.99505 1.98747L9.15197 5.02435C9.33339 5.26873 9.48459 5.5341 9.60227 5.81469C9.71828 6.07704 9.78016 6.36005 9.78421 6.64681L5.04284 1.00001ZM5.04284 1.00001C4.58918 1.0074 4.1416 1.10542 3.72647 1.28827C3.31134 1.47112 2.93707 1.73512 2.62573 2.06469C2.08371 2.56586 1.66018 3.18121 1.38585 3.8661M5.04284 1.00001L1.38585 3.8661M1.38585 3.8661C1.12712 4.52019 0.996175 5.21769 1.00009 5.92094M1.38585 3.8661L1.00009 5.92094M1.00009 5.92094C1.01859 7.06344 1.26539 8.19074 1.72603 9.23671C2.2379 10.4056 2.87638 11.5151 3.63005 12.5452M1.00009 5.92094L3.63005 12.5452M3.63005 12.5452C4.44115 13.6532 5.33458 14.6988 6.30277 15.6729L3.63005 12.5452ZM10.7951 14.1099C11.2086 14.4726 11.6585 14.7918 12.1376 15.0624L12.1373 15.0628L12.1464 15.0668L12.3939 15.1758L12.3938 15.176L12.3995 15.1781C12.6459 15.2691 12.9128 15.2896 13.1702 15.2373C13.4276 15.185 13.6653 15.0619 13.8564 14.8819L13.8564 14.8819L13.8581 14.8802L14.5685 14.1789L14.5686 14.179L14.5708 14.1766C14.7212 14.0183 14.8947 13.8836 15.0855 13.7772L15.0938 13.7726L15.101 13.7665C15.1678 13.7106 15.2512 13.6783 15.3383 13.6747C15.4254 13.671 15.5112 13.6962 15.5825 13.7463L15.591 13.7523L15.6006 13.7564C15.7744 13.8308 15.9399 13.9233 16.0943 14.0322C16.0944 14.0322 16.0945 14.0323 16.0945 14.0323L19.1846 16.2233L19.1844 16.2235L19.1906 16.2272C19.2856 16.2849 19.3629 16.3675 19.4139 16.466C19.4712 16.5997 19.5014 16.7434 19.5027 16.8887C19.5016 17.1215 19.4482 17.3511 19.3463 17.5605L19.3456 17.562C19.2175 17.8368 19.0483 18.0905 18.8438 18.3145L18.8424 18.3161C18.503 18.7044 18.0795 19.0105 17.6042 19.2113C16.914 19.4423 16.1845 19.5331 15.4586 19.4785C14.7315 19.4238 14.0227 19.2243 13.3741 18.8916L13.3742 18.8914L13.3682 18.8888C12.2895 18.4219 11.2673 17.8345 10.3211 17.1377L10.3208 17.1375C9.27312 16.3712 8.28388 15.5283 7.36132 14.6156C6.44921 13.6977 5.60751 12.7126 4.84332 11.6686L4.84328 11.6685C4.15493 10.7298 3.57195 9.71837 3.10486 8.65246L3.10468 8.65205C2.72258 7.79053 2.51613 6.86165 2.49739 5.91961C2.49394 5.40559 2.58909 4.89565 2.77772 4.41736C2.97422 3.93235 3.27634 3.49707 3.66217 3.14306L3.66248 3.14339L3.66886 3.13631C3.84347 2.94247 4.05545 2.7858 4.29212 2.67565C4.52831 2.56573 4.78425 2.50441 5.04468 2.49535C5.18909 2.49513 5.33174 2.52693 5.46235 2.58847L5.46234 2.58848L5.46347 2.58899C5.58716 2.6454 5.69314 2.73434 5.77007 2.84626L5.77006 2.84627L5.77095 2.84753L7.93513 5.8944L7.93511 5.89442L7.93646 5.89623C8.0508 6.04974 8.14638 6.21634 8.22117 6.39247L8.22113 6.39249L8.22237 6.39518C8.25901 6.47482 8.28083 6.56044 8.28676 6.64785C8.28225 6.74072 8.25213 6.83059 8.19967 6.90751L8.19956 6.90744L8.19684 6.91191C8.08533 7.09534 7.95042 7.26353 7.79549 7.41224L7.79544 7.41218L7.79269 7.41504L7.0977 8.13713C6.97366 8.25936 6.87564 8.40537 6.80955 8.56642C6.74328 8.72786 6.71048 8.90105 6.71312 9.07552M10.7951 14.1099C10.3417 13.7256 9.85696 13.2788 9.27112 12.7038L9.26982 12.7025C8.80882 12.2331 8.35632 11.7402 7.87674 11.1866C7.51456 10.7766 7.19258 10.3329 6.91522 9.86154L6.90835 9.84988L6.90919 9.84953L6.79368 9.57427L6.78994 9.56536L6.79039 9.56522C6.74114 9.40656 6.71512 9.24162 6.71312 9.07552M10.7951 14.1099C10.7949 14.1097 10.7946 14.1095 10.7944 14.1093L10.8604 14.0342L10.7957 14.1105C10.7955 14.1103 10.7953 14.1101 10.7951 14.1099ZM6.71312 9.07552C6.71312 9.07544 6.71312 9.07536 6.71312 9.07528L6.81311 9.0741L6.71312 9.07562C6.71312 9.07559 6.71312 9.07556 6.71312 9.07552Z" fill="white" stroke="white" stroke-width="0.2"/>
</svg>
