<svg width="25" height="24" viewBox="0 0 25 24" fill="none" xmlns="http://www.w3.org/2000/svg">
<path d="M22.4741 4.66182H20.7241C20.9549 4.29649 21.1072 3.88641 21.1507 3.45272C21.2894 2.06668 20.5595 0.824195 19.3168 0.27334C18.1745 -0.232999 16.8908 -0.0260115 15.9665 0.812362L13.7567 2.81509C13.3263 2.34439 12.7076 2.04856 12.021 2.04856C11.3332 2.04856 10.7136 2.34533 10.2831 2.81748L8.07048 0.812127C7.14463 -0.0262463 5.86148 -0.232435 4.71971 0.273622C3.47732 0.824524 2.74723 2.06743 2.88641 3.45342C2.92994 3.88679 3.08218 4.29668 3.31297 4.66182H1.56795C0.701963 4.66182 0 5.36383 0 6.22976V8.58171C0 9.01465 0.351005 9.3657 0.783997 9.3657H23.2581C23.6911 9.3657 24.0421 9.0147 24.0421 8.58171V6.22976C24.0421 5.36383 23.3401 4.66182 22.4741 4.66182ZM9.66909 4.4005V4.66182H5.98094C5.00648 4.66182 4.23958 3.75338 4.48295 2.73883C4.59016 2.29203 4.91266 1.91116 5.32978 1.71835C5.90256 1.45361 6.53705 1.5386 7.01812 1.97404L9.66975 4.3774C9.66961 4.38515 9.66909 4.39275 9.66909 4.4005ZM19.5949 3.24456C19.5365 4.0594 18.8005 4.66191 17.9836 4.66191H14.373V4.40059C14.373 4.39134 14.3724 4.38219 14.3723 4.37294C14.973 3.82842 16.2761 2.64735 16.9829 2.00672C17.3845 1.64266 17.9466 1.47272 18.4661 1.62768C19.2116 1.85007 19.6495 2.48408 19.5949 3.24456Z" fill="white"/>
<path d="M1.56796 10.9337V22.4321C1.56796 23.298 2.26993 24 3.13591 24H10.4531V10.9337H1.56796Z" fill="url(#paint0_linear_1256_175)"/>
<path d="M13.589 10.9337V24H20.9061C21.7721 24 22.4741 23.298 22.4741 22.4321V10.9337H13.589Z" fill="url(#paint1_linear_1256_175)"/>
<defs>
<linearGradient id="paint0_linear_1256_175" x1="1.56793" y1="10.9337" x2="19.7799" y2="27.0454" gradientUnits="userSpaceOnUse">
<stop stop-color="#1761BB"/>
<stop offset="1" stop-color="#0E52A5"/>
</linearGradient>
<linearGradient id="paint1_linear_1256_175" x1="1.56793" y1="10.9337" x2="19.7799" y2="27.0454" gradientUnits="userSpaceOnUse">
<stop stop-color="#1761BB"/>
<stop offset="1" stop-color="#0E52A5"/>
</linearGradient>
</defs>
</svg>
