<svg width="48" height="48" viewBox="0 0 48 48" fill="none" xmlns="http://www.w3.org/2000/svg">
<path d="M30.4583 20.1934L33.2808 17.3709L30.6291 14.7193L27.8067 17.5417C27.2104 17.1889 26.5621 16.9149 25.875 16.7375V12.75H22.125V16.7374C21.438 16.9148 20.7896 17.1888 20.1933 17.5417L17.3708 14.7192L14.7192 17.3708L17.5417 20.1933C17.1888 20.7896 16.9148 21.4379 16.7374 22.125H12.75V25.875H16.7373C16.9148 26.5621 17.1888 27.2104 17.5416 27.8067L14.7191 30.6292L17.3708 33.2808L20.1932 30.4583C20.7895 30.8112 21.4379 31.0852 22.1249 31.2626V35.25H25.8749V31.2626C26.5619 31.0852 27.2103 30.8112 27.8066 30.4583L30.629 33.2808L33.2807 30.6292L30.4583 27.8067C30.8111 27.2104 31.0851 26.5621 31.2625 25.8751H35.25V22.1251H31.2627C31.0852 21.438 30.8112 20.7897 30.4583 20.1934ZM24 27.75C21.9323 27.75 20.25 26.0677 20.25 24C20.25 21.9323 21.9323 20.25 24 20.25C26.0677 20.25 27.75 21.9323 27.75 24C27.75 26.0677 26.0677 27.75 24 27.75Z" fill="white"/>
<path d="M48 18.375V14.625H42.75V10.0984L37.9016 5.25H33.375V0H29.625V5.25H25.875V0H22.125V5.25H18.375V0H14.625V5.25H10.0984L5.25 10.0984V14.625H0V18.375H5.25V22.125H0V25.875H5.25V29.625H0V33.375H5.25V37.9016L10.0984 42.75H14.625V48H18.375V42.75H22.125V48H25.875V42.75H29.625V48H33.375V42.75H37.9016L42.75 37.9016V33.375H48V29.625H42.75V25.875H48V22.125H42.75V18.375H48ZM39 36.3484L36.3484 39H11.6516L9 36.3484V11.6516L11.6516 9H36.3484L39 11.6516V36.3484Z" fill="white"/>
<path d="M30.4583 20.1934L33.2808 17.3709L30.6291 14.7193L27.8067 17.5417C27.2104 17.1889 26.5621 16.9149 25.875 16.7375V12.75H22.125V16.7374C21.438 16.9148 20.7896 17.1888 20.1933 17.5417L17.3708 14.7192L14.7192 17.3708L17.5417 20.1933C17.1888 20.7896 16.9148 21.4379 16.7374 22.125H12.75V25.875H16.7373C16.9148 26.5621 17.1888 27.2104 17.5416 27.8067L14.7191 30.6292L17.3708 33.2808L20.1932 30.4583C20.7895 30.8112 21.4379 31.0852 22.1249 31.2626V35.25H25.8749V31.2626C26.5619 31.0852 27.2103 30.8112 27.8066 30.4583L30.629 33.2808L33.2807 30.6292L30.4583 27.8067C30.8111 27.2104 31.0851 26.5621 31.2625 25.8751H35.25V22.1251H31.2627C31.0852 21.438 30.8112 20.7897 30.4583 20.1934ZM24 27.75C21.9323 27.75 20.25 26.0677 20.25 24C20.25 21.9323 21.9323 20.25 24 20.25C26.0677 20.25 27.75 21.9323 27.75 24C27.75 26.0677 26.0677 27.75 24 27.75Z" fill="url(#paint0_linear_156_3463)"/>
<defs>
<linearGradient id="paint0_linear_156_3463" x1="12.75" y1="12.75" x2="39.5097" y2="27.5461" gradientUnits="userSpaceOnUse">
<stop stop-color="#3488EF"/>
<stop offset="1" stop-color="#1F74DC"/>
</linearGradient>
</defs>
</svg>
