<svg width="24" height="24" viewBox="0 0 24 24" fill="none" xmlns="http://www.w3.org/2000/svg">
<path fill-rule="evenodd" clip-rule="evenodd" d="M21.3612 9.8664C21.5172 10.5528 21.6 11.2668 21.6 12C21.6 17.298 17.298 21.6 12 21.6C6.702 21.6 2.4 17.298 2.4 12C2.4 6.702 6.702 2.4 12 2.4C13.1076 2.4 14.1708 2.5872 15.1608 2.9328C15.786 3.1512 16.47 2.8212 16.6884 2.196C16.9068 1.5696 16.5768 0.8856 15.9516 0.6672C14.7132 0.2352 13.3836 0 12 0C5.3772 0 0 5.3772 0 12C0 18.6228 5.3772 24 12 24C18.6228 24 24 18.6228 24 12C24 11.0844 23.8968 10.1916 23.7024 9.3336C23.5548 8.688 22.9116 8.2836 22.266 8.43C21.6204 8.5764 21.2148 9.2196 21.3612 9.8664ZM10.8 12.7032L20.7516 2.7516C21.2196 2.2836 21.9804 2.2836 22.4484 2.7516C22.9164 3.2196 22.9164 3.9804 22.4484 4.4484L11.6484 15.2484C11.1804 15.7176 10.4196 15.7176 9.9516 15.2484L6.3516 11.6484C5.8836 11.1804 5.8836 10.4196 6.3516 9.9516C6.8196 9.4836 7.5804 9.4836 8.0484 9.9516L10.8 12.7032Z" fill="white"/>
<path fill-rule="evenodd" clip-rule="evenodd" d="M21.3612 9.8664C21.5172 10.5528 21.6 11.2668 21.6 12C21.6 17.298 17.298 21.6 12 21.6C6.702 21.6 2.4 17.298 2.4 12C2.4 6.702 6.702 2.4 12 2.4C13.1076 2.4 14.1708 2.5872 15.1608 2.9328C15.786 3.1512 16.47 2.8212 16.6884 2.196C16.9068 1.5696 16.5768 0.8856 15.9516 0.6672C14.7132 0.2352 13.3836 0 12 0C5.3772 0 0 5.3772 0 12C0 18.6228 5.3772 24 12 24C18.6228 24 24 18.6228 24 12C24 11.0844 23.8968 10.1916 23.7024 9.3336C23.5548 8.688 22.9116 8.2836 22.266 8.43C21.6204 8.5764 21.2148 9.2196 21.3612 9.8664ZM10.8 12.7032L20.7516 2.7516C21.2196 2.2836 21.9804 2.2836 22.4484 2.7516C22.9164 3.2196 22.9164 3.9804 22.4484 4.4484L11.6484 15.2484C11.1804 15.7176 10.4196 15.7176 9.9516 15.2484L6.3516 11.6484C5.8836 11.1804 5.8836 10.4196 6.3516 9.9516C6.8196 9.4836 7.5804 9.4836 8.0484 9.9516L10.8 12.7032Z" fill="url(#paint0_linear_156_3507)"/>
<path fill-rule="evenodd" clip-rule="evenodd" d="M10.7994 12.703L20.751 2.75139C21.219 2.28339 21.9798 2.28339 22.4478 2.75139C22.9158 3.21939 22.9158 3.98019 22.4478 4.44819L11.6478 15.2482C11.1798 15.7174 10.419 15.7174 9.951 15.2482L6.351 11.6482C5.883 11.1802 5.883 10.4194 6.351 9.95139C6.819 9.48339 7.5798 9.48339 8.0478 9.95139L10.7994 12.703Z" fill="white"/>
<defs>
<linearGradient id="paint0_linear_156_3507" x1="0" y1="0" x2="28.5437" y2="15.7825" gradientUnits="userSpaceOnUse">
<stop stop-color="#1761BB"/>
<stop offset="1" stop-color="#0E52A5"/>
</linearGradient>
</defs>
</svg>
