<svg width="33" height="33" viewBox="0 0 33 33" fill="none" xmlns="http://www.w3.org/2000/svg">
<path d="M3.42117 27.2751C4.16442 21.207 7.57292 14.7039 11.6768 10.2544C17.4311 4.01561 24.8463 0.59654 32.4825 0.0022346C33.0827 -0.0442033 33.2051 0.646594 32.608 0.823389C25.7944 2.8682 19.0102 7.00959 13.6082 12.8665C9.96496 16.8165 6.74867 21.94 4.70609 27.5505C4.3977 28.3982 3.30099 28.2824 3.42117 27.2751Z" fill="white"/>
<path d="M3.6965 30.3727C4.67916 30.4731 6.74155 27.6221 7.66885 26.344C7.95016 25.9534 8.2943 26.1899 8.21574 26.7136C7.72527 30.1172 4.24027 33.0667 3.41503 32.9988C2.5872 32.9284 -0.205812 29.2451 0.0109733 25.8067C0.0439666 25.2789 0.429358 25.1231 0.624228 25.5643C1.26748 27.0167 2.7088 30.2724 3.6965 30.3727Z" fill="white"/>
</svg>
