<svg width="31" height="21" viewBox="0 0 31 21" fill="none" xmlns="http://www.w3.org/2000/svg">
<path d="M3.6575 7.77727C7.43212 5.46218 12.3683 4.63852 16.3499 5.19922C21.9328 5.98542 26.446 9.12047 29.3954 13.693C29.6271 14.0525 29.268 14.4474 28.9618 14.1497C25.4512 10.7653 20.7341 8.36239 15.493 7.62432C11.9583 7.12655 7.88821 7.43864 3.93596 8.71908C3.33885 8.91271 3.03198 8.16362 3.6575 7.77727Z" fill="url(#paint0_linear_2035_5)"/>
<path d="M1.95393 9.37453C2.23082 10.0442 4.58864 10.0435 5.64658 10.045C5.96916 10.0441 5.9493 10.3711 5.61861 10.5618C3.47636 11.8136 0.576157 10.9568 0.334066 10.4019C0.0925699 9.84432 1.27722 6.38052 3.34634 4.93904C3.66384 4.7176 3.8857 4.89059 3.69618 5.21684C3.07279 6.29201 1.67523 8.70173 1.95393 9.37453Z" fill="url(#paint1_linear_2035_5)"/>
<defs>
<linearGradient id="paint0_linear_2035_5" x1="13.4598" y1="15.5912" x2="17.4427" y2="5.11754" gradientUnits="userSpaceOnUse">
<stop stop-color="#2F83EA"/>
<stop offset="1" stop-color="#14529E"/>
</linearGradient>
<linearGradient id="paint1_linear_2035_5" x1="13.4598" y1="15.5912" x2="17.4427" y2="5.11754" gradientUnits="userSpaceOnUse">
<stop stop-color="#2F83EA"/>
<stop offset="1" stop-color="#14529E"/>
</linearGradient>
</defs>
</svg>
