<svg width="40" height="40" viewBox="0 0 40 40" fill="none" xmlns="http://www.w3.org/2000/svg">
<circle cx="20" cy="20" r="20" fill="white"/>
<path d="M20 0C16.0444 0 12.1776 1.17298 8.8886 3.37061C5.59962 5.56823 3.03617 8.69181 1.52242 12.3463C0.00866581 16.0008 -0.387401 20.0222 0.384303 23.9018C1.15601 27.7814 3.06082 31.3451 5.85787 34.1421C8.65492 36.9392 12.2186 38.844 16.0982 39.6157C19.9778 40.3874 23.9992 39.9913 27.6537 38.4776C31.3082 36.9638 34.4318 34.4004 36.6294 31.1114C38.827 27.8224 40 23.9556 40 20C39.9937 14.6976 37.8846 9.61414 34.1352 5.86477C30.3859 2.1154 25.3024 0.0062554 20 0ZM27.7127 25.1436C27.8864 25.3114 28.0249 25.512 28.1202 25.7338C28.2155 25.9556 28.2656 26.1942 28.2677 26.4356C28.2698 26.677 28.2238 26.9165 28.1324 27.1399C28.041 27.3634 27.906 27.5664 27.7353 27.7371C27.5646 27.9078 27.3615 28.0428 27.1381 28.1342C26.9147 28.2256 26.6752 28.2716 26.4338 28.2695C26.1924 28.2674 25.9538 28.2173 25.732 28.122C25.5102 28.0267 25.3095 27.8882 25.1418 27.7145L20 22.5709L14.8582 27.7145C14.5153 28.0457 14.056 28.229 13.5793 28.2249C13.1026 28.2207 12.6465 28.0295 12.3094 27.6924C11.9723 27.3553 11.7811 26.8993 11.777 26.4225C11.7728 25.9458 11.9561 25.4865 12.2873 25.1436L17.4291 20L12.2873 14.8564C12.1136 14.6886 11.9751 14.488 11.8798 14.2662C11.7845 14.0444 11.7344 13.8058 11.7323 13.5644C11.7302 13.3229 11.7762 13.0835 11.8676 12.8601C11.959 12.6366 12.094 12.4336 12.2647 12.2629C12.4355 12.0922 12.6385 11.9572 12.8619 11.8658C13.0854 11.7744 13.3248 11.7284 13.5662 11.7305C13.8076 11.7325 14.0462 11.7827 14.268 11.878C14.4898 11.9733 14.6905 12.1118 14.8582 12.2855L20 17.4291L25.1418 12.2855C25.3095 12.1118 25.5102 11.9733 25.732 11.878C25.9538 11.7827 26.1924 11.7325 26.4338 11.7305C26.6752 11.7284 26.9147 11.7744 27.1381 11.8658C27.3615 11.9572 27.5646 12.0922 27.7353 12.2629C27.906 12.4336 28.041 12.6366 28.1324 12.8601C28.2238 13.0835 28.2698 13.3229 28.2677 13.5644C28.2656 13.8058 28.2155 14.0444 28.1202 14.2662C28.0249 14.488 27.8864 14.6886 27.7127 14.8564L22.5709 20L27.7127 25.1436Z" fill="black"/>
<path d="M20 0C16.0444 0 12.1776 1.17298 8.8886 3.37061C5.59962 5.56823 3.03617 8.69181 1.52242 12.3463C0.00866581 16.0008 -0.387401 20.0222 0.384303 23.9018C1.15601 27.7814 3.06082 31.3451 5.85787 34.1421C8.65492 36.9392 12.2186 38.844 16.0982 39.6157C19.9778 40.3874 23.9992 39.9913 27.6537 38.4776C31.3082 36.9638 34.4318 34.4004 36.6294 31.1114C38.827 27.8224 40 23.9556 40 20C39.9937 14.6976 37.8846 9.61414 34.1352 5.86477C30.3859 2.1154 25.3024 0.0062554 20 0ZM27.7127 25.1436C27.8864 25.3114 28.0249 25.512 28.1202 25.7338C28.2155 25.9556 28.2656 26.1942 28.2677 26.4356C28.2698 26.677 28.2238 26.9165 28.1324 27.1399C28.041 27.3634 27.906 27.5664 27.7353 27.7371C27.5646 27.9078 27.3615 28.0428 27.1381 28.1342C26.9147 28.2256 26.6752 28.2716 26.4338 28.2695C26.1924 28.2674 25.9538 28.2173 25.732 28.122C25.5102 28.0267 25.3095 27.8882 25.1418 27.7145L20 22.5709L14.8582 27.7145C14.5153 28.0457 14.056 28.229 13.5793 28.2249C13.1026 28.2207 12.6465 28.0295 12.3094 27.6924C11.9723 27.3553 11.7811 26.8993 11.777 26.4225C11.7728 25.9458 11.9561 25.4865 12.2873 25.1436L17.4291 20L12.2873 14.8564C12.1136 14.6886 11.9751 14.488 11.8798 14.2662C11.7845 14.0444 11.7344 13.8058 11.7323 13.5644C11.7302 13.3229 11.7762 13.0835 11.8676 12.8601C11.959 12.6366 12.094 12.4336 12.2647 12.2629C12.4355 12.0922 12.6385 11.9572 12.8619 11.8658C13.0854 11.7744 13.3248 11.7284 13.5662 11.7305C13.8076 11.7325 14.0462 11.7827 14.268 11.878C14.4898 11.9733 14.6905 12.1118 14.8582 12.2855L20 17.4291L25.1418 12.2855C25.3095 12.1118 25.5102 11.9733 25.732 11.878C25.9538 11.7827 26.1924 11.7325 26.4338 11.7305C26.6752 11.7284 26.9147 11.7744 27.1381 11.8658C27.3615 11.9572 27.5646 12.0922 27.7353 12.2629C27.906 12.4336 28.041 12.6366 28.1324 12.8601C28.2238 13.0835 28.2698 13.3229 28.2677 13.5644C28.2656 13.8058 28.2155 14.0444 28.1202 14.2662C28.0249 14.488 27.8864 14.6886 27.7127 14.8564L22.5709 20L27.7127 25.1436Z" fill="url(#paint0_linear_184_5376)"/>
<defs>
<linearGradient id="paint0_linear_184_5376" x1="0" y1="20" x2="40" y2="20" gradientUnits="userSpaceOnUse">
<stop stop-color="#2F83EA"/>
<stop offset="1" stop-color="#14529E"/>
</linearGradient>
</defs>
</svg>
