<svg width="31" height="39" viewBox="0 0 31 39" fill="none" xmlns="http://www.w3.org/2000/svg">
<path d="M16.9535 9.61211C16.9535 8.81611 16.3024 8.1703 15.5 8.1703C14.6976 8.1703 14.0465 8.81611 14.0465 9.61211V15.3794C14.0465 16.1754 14.6976 16.8212 15.5 16.8212C16.3024 16.8212 16.9535 16.1754 16.9535 15.3794V9.61211Z" fill="url(#paint0_linear_184_269)"/>
<path fill-rule="evenodd" clip-rule="evenodd" d="M0 15.3756C0 6.88618 6.94188 0 15.5 0C24.0581 0 31 6.88618 31 15.3756V23.0653C31 31.5585 24.0581 38.4409 15.5 38.4409C6.94188 38.4409 0 31.5585 0 23.0653V15.3756ZM28.0968 15.3756V23.0653C28.0968 29.9665 22.457 35.5611 15.5 35.5611C8.54298 35.5611 2.90696 29.9665 2.90696 23.0653V15.3756C2.90696 8.47818 8.54676 2.88363 15.5 2.88363C22.457 2.88363 28.0968 8.47818 28.0968 15.3794V15.3756Z" fill="url(#paint1_linear_184_269)"/>
<defs>
<linearGradient id="paint0_linear_184_269" x1="-300.434" y1="137.213" x2="-106.379" y2="-286.985" gradientUnits="userSpaceOnUse">
<stop stop-color="#1761BB"/>
<stop offset="0.8" stop-color="#0C4E9F"/>
</linearGradient>
<linearGradient id="paint1_linear_184_269" x1="-7.6232" y1="39.9466" x2="49.8466" y2="-12.3969" gradientUnits="userSpaceOnUse">
<stop offset="0.08" stop-color="#2070D2"/>
<stop offset="1" stop-color="#003A82"/>
</linearGradient>
</defs>
</svg>
