<svg width="18" height="18" viewBox="0 0 18 18" fill="none" xmlns="http://www.w3.org/2000/svg">
<path d="M8.83605 11.4879C9.16688 11.7781 9.52678 12.0334 9.91004 12.2499L9.90985 12.2502L9.91713 12.2535L10.1151 12.3407L10.115 12.3408L10.1196 12.3425C10.3167 12.4153 10.5302 12.4317 10.7362 12.3898C10.9421 12.348 11.1322 12.2495 11.2851 12.1055L11.2851 12.1055L11.2865 12.1042L11.8548 11.5431L11.8549 11.5432L11.8566 11.5413C11.9769 11.4146 12.1158 11.3069 12.2684 11.2218L12.275 11.2181L12.2808 11.2132C12.3342 11.1685 12.401 11.1427 12.4706 11.1397C12.5403 11.1368 12.609 11.1569 12.666 11.197L12.6728 11.2018L12.6805 11.2051C12.8196 11.2647 12.952 11.3387 13.0756 11.4259L15.5477 13.1786L15.5475 13.1788L15.5525 13.1818C15.6285 13.2279 15.6903 13.294 15.7311 13.3728C15.777 13.4797 15.8011 13.5947 15.8021 13.711C15.8013 13.8972 15.7585 14.0809 15.677 14.2484L15.6765 14.2496C15.574 14.4694 15.4387 14.6724 15.2751 14.8516L15.2739 14.8529C15.0024 15.1635 14.6636 15.4084 14.2833 15.569C13.7312 15.7538 13.1476 15.8265 12.5669 15.7828C11.9852 15.7391 11.4182 15.5794 10.8993 15.3133L10.8993 15.3131L10.8945 15.311C10.0316 14.9375 9.21382 14.4676 8.45688 13.9101L8.45667 13.91C7.61849 13.297 6.82709 12.6226 6.08904 11.8925C5.35936 11.1581 4.68601 10.37 4.07466 9.53488L4.07462 9.53483C3.52394 8.78384 3.05756 7.97469 2.68389 7.12197L2.68374 7.12164C2.37806 6.43243 2.21291 5.68932 2.19791 4.93569C2.19515 4.52447 2.27127 4.11653 2.42217 3.7339C2.57937 3.34589 2.82107 2.99765 3.12974 2.71445L3.12998 2.71472L3.13509 2.70904C3.27478 2.55398 3.44436 2.42864 3.63369 2.34052C3.82265 2.25258 4.0274 2.20353 4.23574 2.19628C4.35127 2.1961 4.4654 2.22155 4.56988 2.27077L4.56987 2.27078L4.57078 2.27119C4.66973 2.31632 4.75451 2.38747 4.81606 2.47701L4.81605 2.47701L4.81676 2.47802L6.5481 4.91552L6.54808 4.91553L6.54916 4.91698C6.64064 5.03979 6.7171 5.17307 6.77694 5.31398L6.77691 5.31399L6.7779 5.31615C6.80721 5.37986 6.82466 5.44835 6.82941 5.51828C6.8258 5.59257 6.8017 5.66447 6.75974 5.72601L6.75965 5.72595L6.75747 5.72953C6.66827 5.87627 6.56034 6.01082 6.43639 6.12979L6.43635 6.12975L6.43415 6.13203L5.87816 6.70971C5.77893 6.80749 5.70052 6.9243 5.64764 7.05313C5.59463 7.18227 5.56839 7.32081 5.5705 7.46036M8.83605 11.4879C8.47333 11.1805 8.08556 10.8231 7.61689 10.3631L7.61585 10.362C7.24706 9.98649 6.88507 9.59216 6.50141 9.14933M8.83605 11.4879C8.83588 11.4878 8.83571 11.4876 8.83554 11.4875L8.8883 11.4273L8.83657 11.4884C8.8364 11.4882 8.83623 11.4881 8.83605 11.4879ZM6.50141 9.14933C6.21166 8.82133 5.95407 8.46634 5.73217 8.08924L5.72668 8.0799L5.72736 8.07962L5.63495 7.85942L5.63195 7.85228L5.63231 7.85217C5.59291 7.72523 5.57209 7.59326 5.5705 7.46036M6.50141 9.14933C6.50133 9.14924 6.50125 9.14914 6.50117 9.14905L6.56163 9.09667L6.50168 9.14963C6.50159 9.14953 6.5015 9.14943 6.50141 9.14933ZM5.5705 7.46036C5.5705 7.46032 5.5705 7.46027 5.5705 7.46023L5.65049 7.45928L5.5705 7.46049C5.5705 7.46045 5.5705 7.4604 5.5705 7.46036ZM16.9078 12.8751L16.9078 12.8751L16.907 12.8734C16.7717 12.5732 16.5549 12.3168 16.2812 12.1332L13.807 10.3795L13.8067 10.3793C13.6067 10.2389 13.3925 10.1201 13.1675 10.0248C12.9246 9.91626 12.6593 9.86746 12.3936 9.88245C12.1282 9.89744 11.8701 9.97572 11.6411 10.1107C11.3871 10.2508 11.1556 10.4282 10.9544 10.637L10.4621 11.0945C10.1776 10.9286 9.9103 10.7347 9.66415 10.5158L9.66417 10.5158L9.66269 10.5145C9.32494 10.2285 8.95975 9.89141 8.52059 9.46013C8.17782 9.1113 7.83344 8.737 7.47148 8.31834L7.47148 8.31834L7.47082 8.31759C7.24936 8.06783 7.05008 7.79932 6.87521 7.51509L7.34685 7.02521C7.54484 6.83288 7.71659 6.61533 7.85768 6.37819C8.0194 6.12019 8.10588 5.82225 8.10739 5.51784L8.10736 5.51632C8.10397 5.2764 8.05225 5.03962 7.95529 4.82009C7.8588 4.5902 7.73491 4.37276 7.58631 4.17248L5.86183 1.74445C5.86173 1.74432 5.86164 1.74418 5.86155 1.74405C5.67269 1.47129 5.41389 1.25427 5.11223 1.11571C4.8377 0.986165 4.53772 0.919313 4.23409 0.919997L4.23297 0.920016C3.85938 0.926106 3.49079 1.00682 3.14893 1.1574C2.80789 1.30762 2.50033 1.52434 2.24429 1.79484C1.80291 2.20351 1.45796 2.70502 1.23441 3.26313L1.23428 3.26346C1.02354 3.79623 0.916885 4.36437 0.920065 4.9372L0.920079 4.93805C0.935053 5.86268 1.13479 6.77501 1.50757 7.62153C1.91941 8.56198 2.4331 9.45459 3.03947 10.2834L3.03949 10.2834C3.69074 11.1731 4.40809 12.0126 5.18547 12.7948L5.18594 12.7952C5.97069 13.5718 6.8122 14.289 7.7035 14.9409C8.53845 15.5554 9.44054 16.0732 10.3924 16.4845C11.2361 16.8616 12.1475 17.0641 13.0716 17.0799L13.0726 17.0799C13.6542 17.0829 14.2306 16.9707 14.7685 16.7498L14.7688 16.7497C15.3262 16.5177 15.8232 16.1618 16.2219 15.7088C16.4702 15.4364 16.6759 15.1281 16.8321 14.7945C16.9946 14.4563 17.0794 14.086 17.08 13.7108L17.08 13.7101C17.0779 13.4232 17.0194 13.1395 16.9078 12.8751Z" fill="white" stroke="white" stroke-width="0.16"/>
</svg>
