<svg width="20" height="20" viewBox="0 0 20 20" fill="none" xmlns="http://www.w3.org/2000/svg">
<path opacity="0.3" d="M18.9055 14.3556L18.9055 14.3556C19.0315 14.6543 19.0976 14.9747 19.1 15.2988L19.1 15.2997C19.0993 15.7232 19.0036 16.1412 18.8201 16.523C18.644 16.8993 18.412 17.2469 18.1322 17.5541C17.6826 18.0647 17.1223 18.4661 16.4938 18.7276L16.4934 18.7278C15.887 18.9768 15.2372 19.1033 14.5816 19.0999L14.5804 19.0999C13.5394 19.0821 12.5128 18.854 11.5625 18.4293C10.4909 17.9663 9.47543 17.3833 8.53552 16.6916C7.53241 15.9579 6.58534 15.1507 5.70215 14.2767L5.70156 14.2761C4.82666 13.3958 4.01931 12.451 3.28635 11.4498L3.28634 11.4497C2.60372 10.5167 2.02544 9.51186 1.56182 8.45315C1.14193 7.49963 0.916957 6.47198 0.90009 5.43047L0.900072 5.4294C0.896488 4.78369 1.01672 4.14327 1.25427 3.54271L1.25443 3.54231C1.50644 2.91315 1.89527 2.3478 2.39279 1.88708C2.68171 1.58191 3.02873 1.33742 3.41351 1.16793C3.79933 0.997984 4.21531 0.906893 4.63693 0.900019L4.63833 0.899996C4.98138 0.899224 5.3203 0.974751 5.63048 1.1211C5.97143 1.27773 6.26395 1.52301 6.47741 1.83129L8.4177 4.56317C8.58531 4.78908 8.72505 5.03435 8.83389 5.29366C8.94349 5.54183 9.00195 5.8095 9.00578 6.08072L9.00581 6.08262C9.0041 6.4269 8.90631 6.76388 8.72342 7.05568C8.56429 7.32314 8.37058 7.5685 8.14729 7.78543L7.6222 8.33083C7.81764 8.64765 8.04011 8.94704 8.28715 9.22566L8.28798 9.22659L8.28798 9.2266C8.69504 9.69741 9.0823 10.1183 9.46773 10.5106C9.96165 10.9956 10.3723 11.3746 10.752 11.6962L10.7538 11.6978L10.7538 11.6978C11.0284 11.942 11.3264 12.1584 11.6435 12.344L12.1917 11.8344C12.4187 11.599 12.6798 11.3989 12.9663 11.2409C13.2252 11.0882 13.517 10.9997 13.8173 10.9828C14.1177 10.9658 14.4178 11.021 14.6924 11.1437C14.6927 11.1438 14.693 11.144 14.6933 11.1441L14.6525 11.2354C14.9001 11.3402 15.1358 11.471 15.3558 11.6254L18.9055 14.3556ZM18.9055 14.3556L18.9045 14.3534C18.7515 14.014 18.5065 13.7242 18.1971 13.5167L18.9055 14.3556ZM9.80903 12.8065C10.1817 13.1334 10.5871 13.421 11.0189 13.6648L11.0186 13.6653L11.0277 13.6693L11.2504 13.7674L11.2504 13.7676L11.2561 13.7697C11.4796 13.8523 11.7217 13.8709 11.9552 13.8234C12.1887 13.7759 12.4042 13.6642 12.5776 13.501L12.5776 13.501L12.5793 13.4993L13.2187 12.8681L13.2188 12.8682L13.221 12.8658C13.3556 12.7241 13.511 12.6035 13.6819 12.5082L13.6901 12.5036L13.6974 12.4976C13.7558 12.4487 13.8287 12.4204 13.9049 12.4172C13.9811 12.414 14.0562 12.436 14.1185 12.4798L14.127 12.4858L14.1366 12.4899C14.2924 12.5567 14.4407 12.6395 14.5791 12.7371C14.5792 12.7372 14.5792 12.7372 14.5793 12.7373L17.3603 14.7091L17.3602 14.7093L17.3663 14.7131C17.4502 14.7639 17.5184 14.8368 17.5635 14.9237C17.6144 15.0427 17.6412 15.1705 17.6424 15.2999C17.6414 15.5079 17.5937 15.713 17.5027 15.9001L17.502 15.9016C17.3871 16.148 17.2354 16.3755 17.0521 16.5763L17.0506 16.5779C16.7462 16.9261 16.3665 17.2007 15.9402 17.3808C15.3204 17.5882 14.6654 17.6697 14.0135 17.6207C13.3604 17.5716 12.7238 17.3923 12.1412 17.0935L12.1413 17.0933L12.1353 17.0907C11.1652 16.6708 10.2459 16.1425 9.39492 15.5159L9.39466 15.5157C8.45212 14.8263 7.5622 14.068 6.73225 13.247C5.91172 12.4212 5.15453 11.535 4.46706 10.5958L4.46701 10.5958C3.84793 9.75149 3.32362 8.84184 2.90353 7.8832L2.90335 7.88279C2.56001 7.10866 2.3745 6.274 2.35765 5.42752C2.35456 4.96621 2.43996 4.50858 2.60923 4.07934C2.78553 3.64422 3.05657 3.25371 3.40271 2.93612L3.40302 2.93646L3.40941 2.92937C3.56566 2.75592 3.75534 2.61572 3.96712 2.51715C4.17843 2.41881 4.4074 2.36394 4.64039 2.35582C4.76882 2.35564 4.89569 2.38394 5.01185 2.43867L5.01185 2.43867L5.01298 2.43919C5.12265 2.48921 5.21661 2.56807 5.28482 2.6673L5.28481 2.66731L5.2857 2.66856L7.23346 5.41075L7.23344 5.41077L7.23479 5.41258C7.33723 5.5501 7.42285 5.69934 7.48985 5.85713L7.48981 5.85715L7.49105 5.85984C7.52344 5.93024 7.54275 6.00591 7.54807 6.08316C7.544 6.16469 7.51751 6.24358 7.47144 6.31113L7.47133 6.31105L7.46861 6.31552C7.36871 6.47987 7.24783 6.63056 7.10902 6.7638L7.10896 6.76374L7.10621 6.7666L6.48082 7.41639C6.36827 7.52732 6.27932 7.65983 6.21934 7.80598C6.15919 7.95253 6.12941 8.10974 6.13181 8.26811M9.80903 12.8065C9.40075 12.4604 8.96435 12.0582 8.437 11.5406L8.4357 11.5393C8.02066 11.1167 7.61329 10.6729 7.18158 10.1746C6.85519 9.80512 6.56503 9.40525 6.31508 8.98046L6.30821 8.9688L6.30905 8.96844L6.20509 8.72071L6.20135 8.7118L6.2018 8.71166C6.1572 8.56795 6.13362 8.41856 6.13181 8.26811M9.80903 12.8065C9.80882 12.8063 9.80861 12.8061 9.80839 12.8059L9.87434 12.7308L9.80968 12.807C9.80947 12.8069 9.80925 12.8067 9.80903 12.8065ZM6.13181 8.26811C6.13181 8.26803 6.13181 8.26795 6.13181 8.26787L6.2318 8.26669L6.13181 8.26821C6.13181 8.26818 6.13181 8.26814 6.13181 8.26811Z" fill="white" stroke="white" stroke-width="0.2"/>
</svg>
