<svg width="18" height="31" viewBox="0 0 18 31" fill="none" xmlns="http://www.w3.org/2000/svg">
<path d="M9.80982 3.27557C12.5943 6.71852 14.0504 11.5064 14.0102 15.5271C13.9538 21.1648 11.4298 26.0461 7.27784 29.5629C6.95135 29.8392 6.51322 29.5343 6.76875 29.1921C9.66991 25.2727 11.4416 20.2841 11.4945 14.9915C11.5303 11.4221 10.6936 7.42678 8.91202 3.67368C8.64267 3.10668 9.3457 2.70537 9.80982 3.27557Z" fill="url(#paint0_linear_2006_3)"/>
<path d="M8.00536 1.79325C7.37722 2.15455 7.68327 4.49242 7.81888 5.54164C7.86152 5.86139 7.5347 5.88404 7.30282 5.58084C5.78406 3.61878 6.25799 0.632032 6.77677 0.320114C7.29842 0.00842277 10.8865 0.734424 12.5838 2.5994C12.8445 2.88554 12.7017 3.12794 12.3537 2.98227C11.2068 2.50341 8.63639 1.42975 8.00536 1.79325Z" fill="url(#paint1_linear_2006_3)"/>
<defs>
<linearGradient id="paint0_linear_2006_3" x1="3.33139" y1="14.0075" x2="14.2328" y2="16.6001" gradientUnits="userSpaceOnUse">
<stop stop-color="#2F83EA"/>
<stop offset="1" stop-color="#14529E"/>
</linearGradient>
<linearGradient id="paint1_linear_2006_3" x1="3.33139" y1="14.0075" x2="14.2328" y2="16.6001" gradientUnits="userSpaceOnUse">
<stop stop-color="#2F83EA"/>
<stop offset="1" stop-color="#14529E"/>
</linearGradient>
</defs>
</svg>
