<svg width="57" height="57" viewBox="0 0 57 57" fill="none" xmlns="http://www.w3.org/2000/svg">
<path d="M43.7706 48.4042C44.1026 40.0545 40.8244 30.4991 36.1163 23.5494C29.5149 13.8049 19.9677 7.47393 9.47717 4.89806C8.65254 4.69596 8.32665 5.59836 9.11763 5.9754C18.1371 10.3147 26.6437 17.4723 32.8411 26.6203C37.0207 32.7899 40.3421 40.4416 41.9209 48.4766C42.1591 49.6907 43.711 49.7895 43.7706 48.4042Z" fill="url(#paint0_linear_2010_808)"/>
<path d="M42.6902 52.5144C41.3004 52.4213 39.0728 48.1 38.0704 46.1622C37.7669 45.5705 37.2349 45.8092 37.2263 46.5332C37.1424 51.2336 41.3271 56.0182 42.4906 56.1186C43.6582 56.2161 48.3734 51.902 48.8459 47.2183C48.9188 46.4994 48.4177 46.1999 48.0472 46.7491C46.8253 48.5567 44.087 52.6088 42.6902 52.5144Z" fill="url(#paint1_linear_2010_808)"/>
<defs>
<linearGradient id="paint0_linear_2010_808" x1="21.3421" y1="35.2756" x2="35.221" y2="21.4963" gradientUnits="userSpaceOnUse">
<stop stop-color="#2F83EA"/>
<stop offset="1" stop-color="#14529E"/>
</linearGradient>
<linearGradient id="paint1_linear_2010_808" x1="21.3421" y1="35.2756" x2="35.221" y2="21.4963" gradientUnits="userSpaceOnUse">
<stop stop-color="#2F83EA"/>
<stop offset="1" stop-color="#14529E"/>
</linearGradient>
</defs>
</svg>
