<svg width="31" height="21" viewBox="0 0 31 21" fill="none" xmlns="http://www.w3.org/2000/svg">
<path d="M3.6614 7.77727C7.43602 5.46218 12.3722 4.63852 16.3538 5.19922C21.9367 5.98542 26.4499 9.12047 29.3994 13.693C29.631 14.0525 29.2719 14.4474 28.9657 14.1497C25.4551 10.7653 20.738 8.36239 15.4969 7.62432C11.9622 7.12655 7.89211 7.43864 3.93987 8.71908C3.34276 8.91271 3.03589 8.16362 3.6614 7.77727Z" fill="url(#paint0_linear_3029_7940)"/>
<path d="M1.95783 9.37453C2.23473 10.0442 4.59255 10.0435 5.65049 10.045C5.97307 10.0441 5.9532 10.3711 5.62252 10.5618C3.48026 11.8136 0.580063 10.9568 0.337972 10.4019C0.0964761 9.84432 1.28113 6.38052 3.35025 4.93904C3.66775 4.7176 3.88961 4.89059 3.70008 5.21684C3.0767 6.29201 1.67914 8.70173 1.95783 9.37453Z" fill="url(#paint1_linear_3029_7940)"/>
<defs>
<linearGradient id="paint0_linear_3029_7940" x1="13.4638" y1="15.5912" x2="17.4466" y2="5.11754" gradientUnits="userSpaceOnUse">
<stop stop-color="#2F83EA"/>
<stop offset="1" stop-color="#14529E"/>
</linearGradient>
<linearGradient id="paint1_linear_3029_7940" x1="13.4638" y1="15.5912" x2="17.4466" y2="5.11754" gradientUnits="userSpaceOnUse">
<stop stop-color="#2F83EA"/>
<stop offset="1" stop-color="#14529E"/>
</linearGradient>
</defs>
</svg>
