<svg width="23" height="22" viewBox="0 0 23 22" fill="none" xmlns="http://www.w3.org/2000/svg">
<path d="M21.3884 11.7782C20.6616 11.6743 20.0162 12.1424 19.912 12.8098C19.6502 14.4859 18.827 16.0153 17.531 17.233C14.2327 20.3323 8.86994 20.3298 5.57293 17.233C2.27656 14.135 2.27656 9.09402 5.57293 5.99659C6.81292 4.83204 8.37829 4.07275 10.1302 3.79635C10.8836 3.66199 11.6937 3.63877 12.5341 3.72825C13.6881 3.85307 14.7622 4.21285 15.7424 4.74109L14.0486 5.01285C13.341 5.12691 12.8644 5.75845 12.9865 6.42397C13.0944 7.01969 13.6446 7.44047 14.2672 7.44047C14.3396 7.44047 14.4133 7.4351 14.4882 7.42312L19.029 6.69365C19.3682 6.63876 19.6718 6.45967 19.8714 6.19463C20.0708 5.93021 20.1497 5.60185 20.0911 5.28192L19.3135 1.01579C19.1941 0.350872 18.5308 -0.0944826 17.8118 0.017131C17.1042 0.13119 16.6276 0.763341 16.7496 1.42887L16.9543 2.55173C15.695 1.88791 14.3059 1.45845 12.8301 1.29879C11.7247 1.18058 10.6525 1.21346 9.67097 1.39011C7.41138 1.74586 5.35826 2.74097 3.73317 4.26786C-0.577723 8.31859 -0.577723 14.9098 3.73317 18.9616C5.88855 20.9875 8.72059 22 11.552 22C14.384 22 17.2146 20.9877 19.3708 18.9616C21.0644 17.3702 22.1418 15.3658 22.486 13.1655C22.5904 12.497 22.0986 11.876 21.3884 11.7782Z" fill="white"/>
</svg>
