<svg width="25" height="24" viewBox="0 0 25 24" fill="none" xmlns="http://www.w3.org/2000/svg">
<path d="M22.8027 13.4374H20.935L24.8919 4.22367C25.0513 3.85267 24.8791 3.42295 24.5073 3.26395C24.1355 3.10496 23.7049 3.27682 23.5456 3.64782L19.3413 13.4374H5.65874L1.45444 3.64782C1.29512 3.27682 0.8646 3.10486 0.492725 3.26395C0.120947 3.42295 -0.0512695 3.85262 0.108057 4.22367L4.06504 13.4374H2.19727C0.985693 13.4374 0 14.4211 0 15.6301V20.0155C0 21.2246 0.985693 22.2082 2.19727 22.2082H2.97852V22.9879C2.97852 23.3915 3.30645 23.7188 3.71094 23.7188C4.11543 23.7188 4.44336 23.3915 4.44336 22.9879V22.2082H20.5566V22.9879C20.5566 23.3915 20.8846 23.7188 21.2891 23.7188C21.6936 23.7188 22.0215 23.3915 22.0215 22.9879V22.2082H22.8027C24.0143 22.2082 25 21.2246 25 20.0155V15.6301C25 14.4211 24.0143 13.4374 22.8027 13.4374ZM23.5352 20.0155C23.5352 20.4185 23.2066 20.7464 22.8027 20.7464H2.19727C1.79341 20.7464 1.46484 20.4185 1.46484 20.0155V15.6301C1.46484 15.2271 1.79341 14.8992 2.19727 14.8992H22.8027C23.2066 14.8992 23.5352 15.2271 23.5352 15.6301V20.0155Z" fill="url(#paint0_linear_184_959)"/>
<path d="M22.8027 13.4374H20.935L24.8919 4.22367C25.0513 3.85267 24.8791 3.42295 24.5073 3.26395C24.1355 3.10496 23.7049 3.27682 23.5456 3.64782L19.3413 13.4374H5.65874L1.45444 3.64782C1.29512 3.27682 0.8646 3.10486 0.492725 3.26395C0.120947 3.42295 -0.0512695 3.85262 0.108057 4.22367L4.06504 13.4374H2.19727C0.985693 13.4374 0 14.4211 0 15.6301V20.0155C0 21.2246 0.985693 22.2082 2.19727 22.2082H2.97852V22.9879C2.97852 23.3915 3.30645 23.7188 3.71094 23.7188C4.11543 23.7188 4.44336 23.3915 4.44336 22.9879V22.2082H20.5566V22.9879C20.5566 23.3915 20.8846 23.7188 21.2891 23.7188C21.6936 23.7188 22.0215 23.3915 22.0215 22.9879V22.2082H22.8027C24.0143 22.2082 25 21.2246 25 20.0155V15.6301C25 14.4211 24.0143 13.4374 22.8027 13.4374ZM23.5352 20.0155C23.5352 20.4185 23.2066 20.7464 22.8027 20.7464H2.19727C1.79341 20.7464 1.46484 20.4185 1.46484 20.0155V15.6301C1.46484 15.2271 1.79341 14.8992 2.19727 14.8992H22.8027C23.2066 14.8992 23.5352 15.2271 23.5352 15.6301V20.0155Z" fill="#55A1FF" fill-opacity="0.5"/>
<path d="M10.9493 9.69509C10.6632 9.98053 10.6632 10.4433 10.9493 10.7287C11.2353 11.0142 11.699 11.0142 11.9851 10.7287C12.0655 10.6485 12.2394 10.5138 12.5 10.5138C12.7606 10.5138 12.9345 10.6485 13.0149 10.7287C13.3009 11.0142 13.7647 11.0142 14.0507 10.7287C14.3368 10.4433 14.3368 9.98053 14.0507 9.69509C13.8101 9.45496 13.2886 9.05204 12.5 9.05204C11.7114 9.05204 11.1899 9.45496 10.9493 9.69509Z" fill="url(#paint1_linear_184_959)"/>
<path d="M10.9493 9.69509C10.6632 9.98053 10.6632 10.4433 10.9493 10.7287C11.2353 11.0142 11.699 11.0142 11.9851 10.7287C12.0655 10.6485 12.2394 10.5138 12.5 10.5138C12.7606 10.5138 12.9345 10.6485 13.0149 10.7287C13.3009 11.0142 13.7647 11.0142 14.0507 10.7287C14.3368 10.4433 14.3368 9.98053 14.0507 9.69509C13.8101 9.45496 13.2886 9.05204 12.5 9.05204C11.7114 9.05204 11.1899 9.45496 10.9493 9.69509Z" fill="#55A1FF" fill-opacity="0.5"/>
<path d="M5.7668 4.52948C7.56611 2.73264 9.95732 1.74305 12.5 1.74305C15.0427 1.74305 17.4339 2.73264 19.2332 4.52948C19.5189 4.81492 19.9827 4.81531 20.269 4.52987C20.5551 4.24458 20.5553 3.78177 20.2694 3.49623C18.1934 1.42301 15.4342 0.28125 12.5 0.28125C9.56582 0.28125 6.80664 1.42301 4.73066 3.49618C4.44473 3.78172 4.44487 4.24448 4.73105 4.52982C5.01714 4.81516 5.48096 4.81497 5.7668 4.52948Z" fill="url(#paint2_linear_184_959)"/>
<path d="M5.7668 4.52948C7.56611 2.73264 9.95732 1.74305 12.5 1.74305C15.0427 1.74305 17.4339 2.73264 19.2332 4.52948C19.5189 4.81492 19.9827 4.81531 20.269 4.52987C20.5551 4.24458 20.5553 3.78177 20.2694 3.49623C18.1934 1.42301 15.4342 0.28125 12.5 0.28125C9.56582 0.28125 6.80664 1.42301 4.73066 3.49618C4.44473 3.78172 4.44487 4.24448 4.73105 4.52982C5.01714 4.81516 5.48096 4.81497 5.7668 4.52948Z" fill="#55A1FF" fill-opacity="0.5"/>
<path d="M18.1961 6.59627C18.4822 6.31102 18.4825 5.84822 18.1966 5.56263C16.6746 4.04221 14.6515 3.20485 12.5 3.20485C10.3485 3.20485 8.32539 4.04221 6.80337 5.56263C6.51753 5.84822 6.51772 6.31097 6.80391 6.59627C7.09009 6.88156 7.55386 6.88132 7.8397 6.59573C9.08496 5.35174 10.74 4.66665 12.5 4.66665C14.2599 4.66665 15.9149 5.35174 17.1602 6.59573C17.446 6.88117 17.9097 6.88176 18.1961 6.59627Z" fill="url(#paint3_linear_184_959)"/>
<path d="M18.1961 6.59627C18.4822 6.31102 18.4825 5.84822 18.1966 5.56263C16.6746 4.04221 14.6515 3.20485 12.5 3.20485C10.3485 3.20485 8.32539 4.04221 6.80337 5.56263C6.51753 5.84822 6.51772 6.31097 6.80391 6.59627C7.09009 6.88156 7.55386 6.88132 7.8397 6.59573C9.08496 5.35174 10.74 4.66665 12.5 4.66665C14.2599 4.66665 15.9149 5.35174 17.1602 6.59573C17.446 6.88117 17.9097 6.88176 18.1961 6.59627Z" fill="#55A1FF" fill-opacity="0.5"/>
<path d="M16.1239 8.66203C16.41 8.37659 16.41 7.91384 16.1239 7.6284C15.1546 6.66112 13.8676 6.12844 12.5 6.12844C11.1324 6.12844 9.84536 6.66112 8.87612 7.6284C8.59009 7.91384 8.59009 8.37659 8.87612 8.66203C9.16211 8.94747 9.62588 8.94752 9.91191 8.66203C10.6045 7.97089 11.5236 7.59024 12.5 7.59024C13.4764 7.59024 14.3955 7.97089 15.0881 8.66203C15.3741 8.94747 15.8379 8.94747 16.1239 8.66203Z" fill="url(#paint4_linear_184_959)"/>
<path d="M16.1239 8.66203C16.41 8.37659 16.41 7.91384 16.1239 7.6284C15.1546 6.66112 13.8676 6.12844 12.5 6.12844C11.1324 6.12844 9.84536 6.66112 8.87612 7.6284C8.59009 7.91384 8.59009 8.37659 8.87612 8.66203C9.16211 8.94747 9.62588 8.94752 9.91191 8.66203C10.6045 7.97089 11.5236 7.59024 12.5 7.59024C13.4764 7.59024 14.3955 7.97089 15.0881 8.66203C15.3741 8.94747 15.8379 8.94747 16.1239 8.66203Z" fill="#55A1FF" fill-opacity="0.5"/>
<path d="M15.4297 16.361C15.0252 16.361 14.6973 16.6883 14.6973 17.0919V18.5537C14.6973 18.9574 15.0252 19.2846 15.4297 19.2846C15.8342 19.2846 16.1621 18.9574 16.1621 18.5537V17.0919C16.1621 16.6883 15.8342 16.361 15.4297 16.361Z" fill="url(#paint5_linear_184_959)"/>
<path d="M15.4297 16.361C15.0252 16.361 14.6973 16.6883 14.6973 17.0919V18.5537C14.6973 18.9574 15.0252 19.2846 15.4297 19.2846C15.8342 19.2846 16.1621 18.9574 16.1621 18.5537V17.0919C16.1621 16.6883 15.8342 16.361 15.4297 16.361Z" fill="#55A1FF" fill-opacity="0.5"/>
<path d="M18.3594 16.361C17.9549 16.361 17.627 16.6883 17.627 17.0919V18.5537C17.627 18.9574 17.9549 19.2846 18.3594 19.2846C18.7639 19.2846 19.0918 18.9574 19.0918 18.5537V17.0919C19.0918 16.6883 18.7639 16.361 18.3594 16.361Z" fill="url(#paint6_linear_184_959)"/>
<path d="M18.3594 16.361C17.9549 16.361 17.627 16.6883 17.627 17.0919V18.5537C17.627 18.9574 17.9549 19.2846 18.3594 19.2846C18.7639 19.2846 19.0918 18.9574 19.0918 18.5537V17.0919C19.0918 16.6883 18.7639 16.361 18.3594 16.361Z" fill="#55A1FF" fill-opacity="0.5"/>
<path d="M21.2891 16.361C20.8846 16.361 20.5566 16.6883 20.5566 17.0919V18.5537C20.5566 18.9574 20.8846 19.2846 21.2891 19.2846C21.6936 19.2846 22.0215 18.9574 22.0215 18.5537V17.0919C22.0215 16.6883 21.6936 16.361 21.2891 16.361Z" fill="url(#paint7_linear_184_959)"/>
<path d="M21.2891 16.361C20.8846 16.361 20.5566 16.6883 20.5566 17.0919V18.5537C20.5566 18.9574 20.8846 19.2846 21.2891 19.2846C21.6936 19.2846 22.0215 18.9574 22.0215 18.5537V17.0919C22.0215 16.6883 21.6936 16.361 21.2891 16.361Z" fill="#55A1FF" fill-opacity="0.5"/>
<path d="M10.9486 9.69509C10.6625 9.98053 10.6625 10.4433 10.9486 10.7287C11.2346 11.0142 11.6983 11.0142 11.9844 10.7287C12.0648 10.6485 12.2387 10.5138 12.4993 10.5138C12.76 10.5138 12.9338 10.6485 13.0143 10.7287C13.3002 11.0142 13.764 11.0142 14.05 10.7287C14.3361 10.4433 14.3361 9.98053 14.05 9.69509C13.8094 9.45496 13.2879 9.05204 12.4993 9.05204C11.7107 9.05204 11.1893 9.45496 10.9486 9.69509Z" fill="white"/>
<path d="M5.76611 4.52948C7.56542 2.73264 9.95663 1.74305 12.4993 1.74305C15.042 1.74305 17.4332 2.73264 19.2325 4.52948C19.5183 4.81492 19.982 4.81531 20.2683 4.52987C20.5544 4.24458 20.5546 3.78177 20.2687 3.49623C18.1927 1.42301 15.4335 0.28125 12.4993 0.28125C9.56513 0.28125 6.80595 1.42301 4.72997 3.49618C4.44404 3.78172 4.44418 4.24448 4.73036 4.52982C5.01645 4.81516 5.48027 4.81497 5.76611 4.52948Z" fill="white"/>
<path d="M18.1954 6.59627C18.4815 6.31102 18.4818 5.84822 18.1959 5.56263C16.6739 4.04221 14.6508 3.20485 12.4993 3.20485C10.3478 3.20485 8.3247 4.04221 6.80268 5.56263C6.51684 5.84822 6.51703 6.31097 6.80322 6.59627C7.0894 6.88156 7.55317 6.88132 7.83901 6.59573C9.08427 5.35174 10.7393 4.66665 12.4993 4.66665C14.2592 4.66665 15.9142 5.35174 17.1595 6.59573C17.4453 6.88117 17.909 6.88176 18.1954 6.59627Z" fill="white"/>
<path d="M16.1232 8.66203C16.4093 8.37659 16.4093 7.91384 16.1232 7.6284C15.1539 6.66112 13.8669 6.12844 12.4993 6.12844C11.1317 6.12844 9.84467 6.66112 8.87543 7.6284C8.5894 7.91384 8.5894 8.37659 8.87543 8.66203C9.16142 8.94747 9.62519 8.94752 9.91122 8.66203C10.6038 7.97089 11.5229 7.59024 12.4993 7.59024C13.4757 7.59024 14.3948 7.97089 15.0874 8.66203C15.3734 8.94747 15.8372 8.94747 16.1232 8.66203Z" fill="white"/>
<defs>
<linearGradient id="paint0_linear_184_959" x1="12.5" y1="0.28125" x2="0.725957" y2="11.5843" gradientUnits="userSpaceOnUse">
<stop stop-color="#2F83EA"/>
<stop offset="1" stop-color="#14529E"/>
</linearGradient>
<linearGradient id="paint1_linear_184_959" x1="12.5" y1="0.28125" x2="0.725957" y2="11.5843" gradientUnits="userSpaceOnUse">
<stop stop-color="#2F83EA"/>
<stop offset="1" stop-color="#14529E"/>
</linearGradient>
<linearGradient id="paint2_linear_184_959" x1="12.5" y1="0.28125" x2="0.725957" y2="11.5843" gradientUnits="userSpaceOnUse">
<stop stop-color="#2F83EA"/>
<stop offset="1" stop-color="#14529E"/>
</linearGradient>
<linearGradient id="paint3_linear_184_959" x1="12.5" y1="0.28125" x2="0.725957" y2="11.5843" gradientUnits="userSpaceOnUse">
<stop stop-color="#2F83EA"/>
<stop offset="1" stop-color="#14529E"/>
</linearGradient>
<linearGradient id="paint4_linear_184_959" x1="12.5" y1="0.28125" x2="0.725957" y2="11.5843" gradientUnits="userSpaceOnUse">
<stop stop-color="#2F83EA"/>
<stop offset="1" stop-color="#14529E"/>
</linearGradient>
<linearGradient id="paint5_linear_184_959" x1="12.5" y1="0.28125" x2="0.725957" y2="11.5843" gradientUnits="userSpaceOnUse">
<stop stop-color="#2F83EA"/>
<stop offset="1" stop-color="#14529E"/>
</linearGradient>
<linearGradient id="paint6_linear_184_959" x1="12.5" y1="0.28125" x2="0.725957" y2="11.5843" gradientUnits="userSpaceOnUse">
<stop stop-color="#2F83EA"/>
<stop offset="1" stop-color="#14529E"/>
</linearGradient>
<linearGradient id="paint7_linear_184_959" x1="12.5" y1="0.28125" x2="0.725957" y2="11.5843" gradientUnits="userSpaceOnUse">
<stop stop-color="#2F83EA"/>
<stop offset="1" stop-color="#14529E"/>
</linearGradient>
</defs>
</svg>
