<svg width="16" height="21" viewBox="0 0 16 21" fill="none" xmlns="http://www.w3.org/2000/svg">
<path fill-rule="evenodd" clip-rule="evenodd" d="M8.31854 0.897728C4.07551 0.897728 0.636719 4.33652 0.636719 8.57955C0.636719 10.7011 1.49642 12.6215 2.88303 14.0081C4.27657 15.4017 7.54897 17.4123 7.74309 19.5268C7.77083 19.8458 7.99962 20.1023 8.31854 20.1023C8.63746 20.1023 8.86625 19.8458 8.89398 19.5268C9.08811 17.4123 12.3605 15.4017 13.754 14.0081C15.1407 12.6146 16.0004 10.6941 16.0004 8.57955C16.0004 4.33652 12.5616 0.897728 8.31854 0.897728Z" fill="#FF4433"/>
<path fill-rule="evenodd" clip-rule="evenodd" d="M8.31893 11.2696C9.8026 11.2696 11.009 10.0632 11.009 8.57956C11.009 7.09588 9.8026 5.88953 8.31893 5.88953C6.83525 5.88953 5.62891 7.09588 5.62891 8.57956C5.62891 10.0632 6.83525 11.2696 8.31893 11.2696Z" fill="white"/>
</svg>
