<svg width="20" height="21" viewBox="0 0 20 21" fill="none" xmlns="http://www.w3.org/2000/svg">
<g clip-path="url(#clip0_1252_59)">
<path d="M9.60227 20.1023C14.9055 20.1023 19.2045 15.8032 19.2045 10.5C19.2045 5.1968 14.9055 0.89772 9.60227 0.89772C4.29908 0.89772 0 5.1968 0 10.5C0 15.8032 4.29908 20.1023 9.60227 20.1023Z" fill="#FC3F1D"/>
<path d="M11.1076 16.5014H13.2012V4.49857H10.154C7.08937 4.49857 5.48189 6.06734 5.48189 8.38479C5.48189 10.3854 6.52403 11.5133 8.37007 12.7385L9.49173 13.4788L8.05199 12.2713L5.19922 16.5014H7.46896L10.5165 11.9541L9.45663 11.249C8.17592 10.3854 7.54877 9.71561 7.54877 8.26146C7.54877 6.98376 8.44989 6.12016 10.163 6.12016H11.0992V16.5014H11.1082H11.1076Z" fill="white"/>
</g>
<defs>
<clipPath id="clip0_1252_59">
<rect width="19.2045" height="19.2045" fill="white" transform="translate(0 0.89772)"/>
</clipPath>
</defs>
</svg>
