<svg width="55" height="55" viewBox="0 0 55 55" fill="none" xmlns="http://www.w3.org/2000/svg">
<g filter="url(#filter0_i_75_3863)">
<rect width="55" height="55" rx="27.5" fill="#538EC8"/>
</g>
<path fill-rule="evenodd" clip-rule="evenodd" d="M35.8045 18.703C35.3359 18.9109 34.0699 19.4748 32.9912 19.9559C31.9124 20.4371 30.9243 20.8762 30.7953 20.9319C30.6664 20.9874 29.448 21.5291 28.0879 22.1355C25.5895 23.2494 21.4931 25.0718 18.6544 26.3324C17.8043 26.7099 17.109 27.0299 17.1094 27.0434C17.1097 27.0569 17.6709 27.2971 18.3565 27.5772C19.0421 27.8572 19.91 28.2135 20.2853 28.3688C20.6605 28.5242 21.1497 28.7245 21.3725 28.8141C21.6306 28.9179 21.8332 29.1252 21.931 29.3856L22.9809 32.1812C23.6427 33.9435 24.1922 35.4059 24.202 35.4309C24.2119 35.4559 24.9272 34.7247 25.7917 33.806C26.6562 32.8874 27.379 32.1357 27.3979 32.1357C27.4169 32.1357 28.0883 32.6927 28.89 33.3733C29.6917 34.0541 30.6253 34.8466 30.9646 35.1345C31.3039 35.4225 31.8603 35.8957 32.2011 36.1862C32.5754 36.5051 32.8311 36.6941 32.8471 36.6634C32.8616 36.6354 32.9253 36.3569 32.9886 36.0445C33.0518 35.732 33.1687 35.1695 33.2484 34.7946C33.328 34.4196 34.0946 30.7381 34.9518 26.6135C35.8091 22.4889 36.547 18.9404 36.5915 18.7281C36.6361 18.5157 36.6689 18.3381 36.6645 18.3334C36.6601 18.3287 36.2731 18.495 35.8045 18.703ZM30.8796 23.7878C30.7378 23.9298 29.2048 25.4218 27.0006 27.5628C26.004 28.531 25.1566 29.3679 25.1175 29.4227C25.0784 29.4775 24.9563 29.8905 24.8461 30.3404C24.3516 32.3602 24.3283 32.4409 24.2759 32.3175C24.2494 32.255 23.9407 31.4372 23.5898 30.5002C23.0925 29.1719 22.9635 28.785 23.0043 28.7447C23.0331 28.7163 23.6035 28.3461 24.2718 27.9221C24.9402 27.4981 26.3888 26.5778 27.491 25.8771C30.8173 23.7625 30.9439 23.6825 30.9649 23.6822C30.9761 23.6821 30.9378 23.7295 30.8796 23.7878Z" fill="white"/>
<defs>
<filter id="filter0_i_75_3863" x="0" y="0" width="57" height="57" filterUnits="userSpaceOnUse" color-interpolation-filters="sRGB">
<feFlood flood-opacity="0" result="BackgroundImageFix"/>
<feBlend mode="normal" in="SourceGraphic" in2="BackgroundImageFix" result="shape"/>
<feColorMatrix in="SourceAlpha" type="matrix" values="0 0 0 0 0 0 0 0 0 0 0 0 0 0 0 0 0 0 127 0" result="hardAlpha"/>
<feOffset dx="2" dy="2"/>
<feGaussianBlur stdDeviation="5"/>
<feComposite in2="hardAlpha" operator="arithmetic" k2="-1" k3="1"/>
<feColorMatrix type="matrix" values="0 0 0 0 1 0 0 0 0 1 0 0 0 0 1 0 0 0 0.25 0"/>
<feBlend mode="normal" in2="shape" result="effect1_innerShadow_75_3863"/>
</filter>
</defs>
</svg>
