<svg width="30" height="30" viewBox="0 0 30 30" fill="none" xmlns="http://www.w3.org/2000/svg">
<path fill-rule="evenodd" clip-rule="evenodd" d="M26.7015 12.333C26.8965 13.191 27 14.0835 27 15C27 21.6225 21.6225 27 15 27C8.3775 27 3 21.6225 3 15C3 8.3775 8.3775 3 15 3C16.3845 3 17.7135 3.234 18.951 3.666C19.7325 3.939 20.5875 3.5265 20.8605 2.745C21.1335 1.962 20.721 1.107 19.9395 0.834C18.3915 0.294 16.7295 0 15 0C6.7215 0 0 6.7215 0 15C0 23.2785 6.7215 30 15 30C23.2785 30 30 23.2785 30 15C30 13.8555 29.871 12.7395 29.628 11.667C29.4435 10.86 28.6395 10.3545 27.8325 10.5375C27.0255 10.7205 26.5185 11.5245 26.7015 12.333ZM13.5 15.879L25.9395 3.4395C26.5245 2.8545 27.4755 2.8545 28.0605 3.4395C28.6455 4.0245 28.6455 4.9755 28.0605 5.5605L14.5605 19.0605C13.9755 19.647 13.0245 19.647 12.4395 19.0605L7.9395 14.5605C7.3545 13.9755 7.3545 13.0245 7.9395 12.4395C8.5245 11.8545 9.4755 11.8545 10.0605 12.4395L13.5 15.879Z" fill="white"/>
<path fill-rule="evenodd" clip-rule="evenodd" d="M26.7015 12.333C26.8965 13.191 27 14.0835 27 15C27 21.6225 21.6225 27 15 27C8.3775 27 3 21.6225 3 15C3 8.3775 8.3775 3 15 3C16.3845 3 17.7135 3.234 18.951 3.666C19.7325 3.939 20.5875 3.5265 20.8605 2.745C21.1335 1.962 20.721 1.107 19.9395 0.834C18.3915 0.294 16.7295 0 15 0C6.7215 0 0 6.7215 0 15C0 23.2785 6.7215 30 15 30C23.2785 30 30 23.2785 30 15C30 13.8555 29.871 12.7395 29.628 11.667C29.4435 10.86 28.6395 10.3545 27.8325 10.5375C27.0255 10.7205 26.5185 11.5245 26.7015 12.333ZM13.5 15.879L25.9395 3.4395C26.5245 2.8545 27.4755 2.8545 28.0605 3.4395C28.6455 4.0245 28.6455 4.9755 28.0605 5.5605L14.5605 19.0605C13.9755 19.647 13.0245 19.647 12.4395 19.0605L7.9395 14.5605C7.3545 13.9755 7.3545 13.0245 7.9395 12.4395C8.5245 11.8545 9.4755 11.8545 10.0605 12.4395L13.5 15.879Z" fill="url(#paint0_linear_75_4325)"/>
<path fill-rule="evenodd" clip-rule="evenodd" d="M13.4992 15.8783L25.9387 3.43875C26.5237 2.85375 27.4748 2.85375 28.0597 3.43875C28.6447 4.02375 28.6447 4.97475 28.0597 5.55975L14.5598 19.0597C13.9748 19.6462 13.0237 19.6462 12.4387 19.0597L7.93875 14.5597C7.35375 13.9747 7.35375 13.0237 7.93875 12.4387C8.52375 11.8537 9.47475 11.8537 10.0597 12.4387L13.4992 15.8783Z" fill="white"/>
<defs>
<linearGradient id="paint0_linear_75_4325" x1="0" y1="0" x2="35.6796" y2="19.7282" gradientUnits="userSpaceOnUse">
<stop stop-color="#1761BB"/>
<stop offset="1" stop-color="#0E52A5"/>
</linearGradient>
</defs>
</svg>
