<svg width="55" height="55" viewBox="0 0 55 55" fill="none" xmlns="http://www.w3.org/2000/svg">
<g filter="url(#filter0_i_75_3866)">
<rect width="55" height="55" rx="27.5" fill="#5BB57F"/>
</g>
<path fill-rule="evenodd" clip-rule="evenodd" d="M26.3413 17.1406C24.8986 17.3611 23.8955 17.6757 22.7182 18.2768C18.4427 20.4594 16.2338 25.3181 17.434 29.899C17.5259 30.2495 17.7486 30.8836 17.9291 31.3081C18.1094 31.7326 18.2729 32.1714 18.2922 32.2831C18.3116 32.3948 18.0573 33.7018 17.7272 35.1876C17.3972 36.6734 17.1302 37.8889 17.134 37.8889C17.1378 37.8889 18.4138 37.5996 19.9696 37.2461L22.089 36.7646C22.5502 36.6598 23.0327 36.7022 23.4687 36.8857C25.9898 37.9466 28.8569 37.9667 31.4207 36.9413C34.179 35.8383 36.4453 33.4515 37.3701 30.6763C37.7842 29.4336 37.8872 28.783 37.8872 27.4084C37.8872 25.6149 37.5429 24.1893 36.7453 22.6797C35.3139 19.9703 32.7498 18.016 29.7202 17.3252C29.0431 17.1707 26.907 17.054 26.3413 17.1406ZM29.6795 18.9938C32.1818 19.6341 34.3134 21.3836 35.4281 23.7118C36.573 26.1031 36.5822 28.6568 35.4542 31.0524C34.1402 33.8426 31.5386 35.6728 28.3823 36.0272C26.871 36.1969 25.2037 35.9034 23.7091 35.2045C23.2689 34.9987 22.7727 34.9449 22.2986 35.0516L21.1994 35.299C20.1924 35.5257 19.3517 35.6943 19.331 35.6736C19.3104 35.6529 19.4715 34.826 19.6891 33.8361L19.8757 32.9875C20.0111 32.3719 19.9316 31.7285 19.6504 31.1644C19.4079 30.6778 19.1199 29.9336 18.9986 29.4801C18.8054 28.7581 18.7814 28.5231 18.7831 27.3678C18.7848 26.2312 18.8115 25.9688 18.9955 25.2793C19.647 22.838 21.3626 20.7314 23.5731 19.6583C25.0573 18.9379 26.1457 18.7026 27.7662 18.7519C28.5957 18.7772 29.065 18.8365 29.6795 18.9938ZM23.5884 23.1783C22.7158 23.9809 22.5267 25.2233 23.0854 26.4838C23.5783 27.5959 25.0969 29.424 26.2053 30.2396C27.3616 31.0903 29.0622 31.7374 30.168 31.7474C30.7675 31.7529 30.8616 31.7302 31.3486 31.4631C32.0634 31.071 32.3287 30.6915 32.386 29.9787C32.412 29.6552 32.237 29.3489 31.9451 29.2072L31.3393 28.9129C30.7398 28.6217 30.1714 28.3834 30.0759 28.3834C29.9698 28.3833 29.8148 28.5016 29.6768 28.688C29.2945 29.2044 28.8801 29.602 28.7244 29.602C28.2903 29.602 26.789 28.6376 26.1926 27.9756C25.8078 27.5486 25.1607 26.6296 25.1607 26.5102C25.1607 26.4732 25.3439 26.234 25.5678 25.9787C25.8333 25.6759 25.9749 25.4408 25.9749 25.3026C25.9749 25.0457 25.2246 23.2262 25.0301 23.0119C24.9241 22.895 24.7781 22.8587 24.4136 22.8587C23.9707 22.8587 23.9105 22.882 23.5884 23.1783Z" fill="white"/>
<defs>
<filter id="filter0_i_75_3866" x="0" y="0" width="57" height="57" filterUnits="userSpaceOnUse" color-interpolation-filters="sRGB">
<feFlood flood-opacity="0" result="BackgroundImageFix"/>
<feBlend mode="normal" in="SourceGraphic" in2="BackgroundImageFix" result="shape"/>
<feColorMatrix in="SourceAlpha" type="matrix" values="0 0 0 0 0 0 0 0 0 0 0 0 0 0 0 0 0 0 127 0" result="hardAlpha"/>
<feOffset dx="2" dy="2"/>
<feGaussianBlur stdDeviation="5"/>
<feComposite in2="hardAlpha" operator="arithmetic" k2="-1" k3="1"/>
<feColorMatrix type="matrix" values="0 0 0 0 1 0 0 0 0 1 0 0 0 0 1 0 0 0 0.25 0"/>
<feBlend mode="normal" in2="shape" result="effect1_innerShadow_75_3866"/>
</filter>
</defs>
</svg>
